<svg width="160" height="45" viewBox="0 0 160 45" fill="none" xmlns="http://www.w3.org/2000/svg">
<path d="M40.1255 26.041C42.2521 26.041 43.976 24.3171 43.976 22.1906C43.976 20.0641 42.2521 18.3402 40.1255 18.3402C37.999 18.3402 36.2751 20.0641 36.2751 22.1906C36.2751 24.3171 37.999 26.041 40.1255 26.041Z" fill="#FFFDF1"/>
<path d="M77.9205 4.55975C78.7311 6.48496 79.2378 6.07964 74.5767 8.41016C68.8011 11.2473 57.9591 15.9084 48.029 19.7588C47.7251 18.9482 47.4211 18.1375 46.9144 17.4282C55.6286 11.4499 65.66 5.16771 71.2329 2.02657C75.7927 -0.607934 75.1847 -0.405317 76.2993 1.41857L77.9205 4.55975Z" fill="#FFFDF1"/>
<path d="M2.22918 39.8215C1.41856 37.8963 0.911927 38.3016 5.57297 35.9711C11.3486 33.1339 22.1906 28.4729 32.1207 24.6225C32.4247 25.4331 32.7286 26.2437 33.2353 26.953C24.5211 32.9313 14.4898 39.2136 8.91677 42.3547C4.35705 44.9892 4.96501 44.7865 3.85042 42.9626L2.22918 39.8215Z" fill="#FFFDF1"/>
<path d="M26.953 13.3751C23.4066 9.22072 19.8601 0.506638 10.538 0.506638C3.34379 0.506638 0.303981 5.87697 0 10.1327C0 10.3354 0 10.538 0 10.7406V10.842C0 11.2473 6.18301e-06 11.6526 0.101333 12.0579C0.101333 12.0579 0.101333 12.0579 0.101333 12.1593C0.101333 12.4632 0.202651 12.6659 0.202651 12.9699C0.202651 12.9699 0.202651 12.9698 0.202651 13.0712C0.405305 14.0844 0.607963 14.9964 1.01327 15.807C1.01327 15.9083 1.1146 15.9083 1.1146 16.0097C1.1146 16.111 1.21592 16.2123 1.21592 16.2123C1.5199 16.719 1.72255 16.9216 2.43184 17.0229L5.87697 17.4282H6.07963C6.48493 17.4282 6.89025 17.0229 6.89025 16.6176C6.89025 16.3136 6.58626 16.0096 6.48493 15.9083C6.28227 15.7057 6.07963 15.503 5.87697 15.3004C5.06636 14.2871 4.55972 12.9698 4.55972 11.7539C4.55972 9.01809 6.99157 6.78887 10.9433 6.78887C14.9964 6.78887 18.7455 10.0314 21.5827 13.2738C26.4464 18.8468 29.7902 19.4548 32.222 19.9614C32.4247 19.1508 32.83 18.2388 33.4379 17.4282C31.6141 16.7189 29.4862 16.2123 26.953 13.3751Z" fill="#FFFDF1"/>
<path d="M53.1967 31.2087C56.7432 35.2618 60.2896 44.0773 69.6117 44.0773C76.8059 44.0773 79.8458 38.7069 80.1497 34.4512C80.1497 34.2485 80.1497 34.0459 80.1497 33.8432V33.7419C80.1497 33.3366 80.1497 32.9313 80.0484 32.526C80.0484 32.526 80.0484 32.526 80.0484 32.4247C80.0484 32.1207 79.9471 31.918 79.9471 31.614C79.9471 31.614 79.9471 31.614 79.9471 31.5127C79.7444 30.4994 79.5418 29.5875 79.1365 28.7768C79.1365 28.6755 79.0351 28.6755 79.0351 28.5742C79.0351 28.4729 78.9338 28.3716 78.9338 28.3716C78.6298 27.8649 78.4272 27.6622 77.7179 27.5609L74.2728 27.1556H74.0701C73.6648 27.1556 73.2595 27.5609 73.2595 27.9662C73.2595 28.2702 73.5635 28.5742 73.6648 28.6755C73.8674 28.8782 74.0701 29.0808 74.2728 29.2835C75.0834 30.2968 75.59 31.614 75.59 32.8299C75.59 35.5658 73.1582 37.795 69.2064 37.795C65.1533 37.795 61.4042 34.5525 58.5671 31.31C53.7034 25.737 50.3596 25.1291 47.9277 24.6225C47.7251 25.4331 47.3198 26.345 46.7118 27.1556C48.5357 27.7636 50.6635 28.2702 53.1967 31.2087Z" fill="#FFFDF1"/>
<path d="M102.239 12.5645H101.023C100.719 12.5645 100.516 12.4632 100.314 12.1593L94.5382 4.35705V12.1593C94.5382 12.4632 94.3355 12.6659 94.0315 12.6659H92.8156C92.5116 12.6659 92.309 12.5645 92.309 12.2606V0.911908C92.309 0.5066 92.5116 0.405273 92.8156 0.405273H93.9302C94.2342 0.405273 94.3355 0.506587 94.5382 0.709242L100.314 8.6128V0.810606C100.314 0.506625 100.516 0.30397 100.82 0.30397H102.138C102.543 0.30397 102.543 0.506625 102.543 0.810606V12.0579C102.644 12.4632 102.442 12.5645 102.239 12.5645Z" fill="#FFFDF1"/>
<path d="M112.777 12.5645H111.966C111.055 12.5645 110.649 12.1592 110.548 11.5513C110.143 12.1592 108.927 12.7672 108.015 12.7672C105.583 12.7672 104.367 10.7407 104.367 8.41014C104.367 5.37032 106.191 3.74905 108.116 3.74905C109.028 3.74905 109.94 4.15436 110.345 4.76233V4.25569C110.345 4.05304 110.548 3.95172 110.751 3.95172H111.966C112.169 3.95172 112.372 4.05307 112.372 4.35705V10.4367C112.372 10.6393 112.372 10.842 112.473 10.9433C112.574 11.0446 112.574 11.0446 112.676 11.0446H112.777C112.98 11.0446 113.081 11.1459 113.081 11.3486V12.1593C113.081 12.4632 112.98 12.5645 112.777 12.5645ZM110.244 6.4849C109.94 5.97826 109.129 5.57299 108.521 5.57299C107.407 5.57299 106.495 6.48489 106.495 8.30877C106.495 9.82868 107.103 11.0446 108.319 11.0446C109.129 11.0446 109.94 10.4366 110.143 9.82868L110.244 6.4849Z" fill="#FFFDF1"/>
<path d="M119.769 12.3619C119.262 12.5645 118.553 12.7672 117.843 12.7672C116.931 12.7672 116.222 12.5645 115.716 12.0579C115.209 11.4499 115.108 10.7407 115.108 9.42342V5.47164H114.297C113.993 5.47164 113.892 5.37035 113.892 5.06637V4.35707C113.892 4.15441 113.993 4.0531 114.196 4.0531H115.108V2.12786C115.108 1.82388 115.31 1.72253 115.513 1.72253L116.729 1.51992H116.83C117.033 1.51992 117.134 1.62121 117.134 1.92519V4.0531H119.161C119.363 4.0531 119.465 4.15441 119.465 4.35707V5.16767C119.465 5.37033 119.363 5.47164 119.161 5.47164H117.235V9.52472C117.235 10.0314 117.235 10.4367 117.438 10.7407C117.641 10.9433 117.843 11.146 118.249 11.146C118.654 11.146 119.059 11.0447 119.363 10.9433C119.465 10.9433 119.465 10.9433 119.566 10.9433C119.667 10.9433 119.769 11.0447 119.769 11.146L119.971 12.0579C119.971 12.1592 119.971 12.1593 119.971 12.1593C120.073 12.2606 119.971 12.3619 119.769 12.3619Z" fill="#FFFDF1"/>
<path d="M122.707 2.93845C122.099 2.93845 121.491 2.53317 121.491 1.82388C121.491 1.11459 122.099 0.709244 122.707 0.709244C123.315 0.709244 123.923 1.11459 123.923 1.82388C123.822 2.53317 123.315 2.93845 122.707 2.93845ZM123.315 12.5645H122.099C121.795 12.5645 121.593 12.4632 121.593 12.1593V4.45836C121.593 4.15438 121.795 4.05309 122.099 4.05309H123.315C123.619 4.05309 123.72 4.15438 123.72 4.45836V12.1593C123.72 12.4632 123.619 12.5645 123.315 12.5645Z" fill="#FFFDF1"/>
<path d="M129.496 12.7672C126.659 12.7672 125.342 10.842 125.342 8.30877C125.342 5.7756 126.862 3.85042 129.597 3.85042C132.435 3.85042 133.752 5.7756 133.752 8.30877C133.853 10.842 132.232 12.7672 129.496 12.7672ZM129.597 5.47163C128.077 5.47163 127.571 6.78889 127.571 8.20747C127.571 9.62605 127.976 11.0446 129.597 11.0446C131.117 11.0446 131.624 9.62605 131.624 8.20747C131.624 6.78889 131.117 5.47163 129.597 5.47163Z" fill="#FFFDF1"/>
<path d="M142.567 12.5645H141.351C141.047 12.5645 140.946 12.3619 140.946 12.0579V7.2955C140.946 6.28223 140.642 5.67429 139.629 5.67429C138.919 5.67429 138.109 6.07959 137.602 6.4849V12.0579C137.602 12.3619 137.501 12.4632 137.197 12.4632H135.88C135.576 12.4632 135.474 12.3619 135.474 12.0579V4.35705C135.474 4.05307 135.576 3.95172 135.88 3.95172H136.994C137.197 3.95172 137.4 4.05304 137.4 4.25569V4.76233C138.21 4.15436 139.223 3.74905 140.237 3.74905C142.162 3.74905 142.973 4.96502 142.973 6.89023V12.0579C142.973 12.4632 142.871 12.5645 142.567 12.5645Z" fill="#FFFDF1"/>
<path d="M152.7 12.5645H151.889C150.977 12.5645 150.572 12.1592 150.471 11.5513C150.065 12.1592 148.849 12.7672 147.938 12.7672C145.506 12.7672 144.29 10.7407 144.29 8.41014C144.29 5.37032 146.114 3.74905 148.039 3.74905C148.951 3.74905 149.863 4.15436 150.268 4.76233V4.25569C150.268 4.05304 150.471 3.95172 150.673 3.95172H151.889C152.092 3.95172 152.295 4.05307 152.295 4.35705V10.4367C152.295 10.6393 152.295 10.842 152.396 10.9433C152.497 11.0446 152.497 11.0446 152.599 11.0446H152.7C152.903 11.0446 153.004 11.1459 153.004 11.3486V12.1593C153.105 12.4632 153.004 12.5645 152.7 12.5645ZM150.167 6.4849C149.863 5.97826 149.052 5.57299 148.444 5.57299C147.33 5.57299 146.418 6.48489 146.418 8.30877C146.418 9.82868 147.026 11.0446 148.242 11.0446C149.153 11.0446 149.863 10.4366 150.065 9.82868L150.167 6.4849Z" fill="#FFFDF1"/>
<path d="M97.7806 28.3716C97.4767 28.3716 97.3753 28.2702 97.274 28.0676L94.5382 21.1773V27.9663C94.5382 28.3716 94.3355 28.3716 94.0315 28.3716H92.9169C92.613 28.3716 92.4103 28.2703 92.4103 27.865V16.6176C92.4103 16.2123 92.5116 16.111 92.8156 16.111H93.8289C94.1329 16.111 94.3355 16.2123 94.4369 16.5163L98.0846 25.2304L101.732 16.5163C101.834 16.2123 101.935 16.111 102.34 16.111H103.354C103.658 16.111 103.759 16.2123 103.759 16.6176V27.865C103.759 28.1689 103.658 28.3716 103.252 28.3716H102.138C101.834 28.3716 101.631 28.2702 101.631 27.9663V21.1773L98.8953 28.0676C98.7939 28.3715 98.5913 28.3716 98.3886 28.3716H97.7806Z" fill="#FFFDF1"/>
<path d="M112.574 28.3716H111.46C111.257 28.3716 111.055 28.2702 111.055 28.0676V27.6623C110.244 28.2703 109.433 28.6756 108.42 28.6756C106.495 28.6756 105.684 27.4596 105.684 25.5344V20.3667C105.684 20.0627 105.887 19.9614 106.191 19.9614H107.407C107.711 19.9614 107.812 20.0627 107.812 20.3667V25.2304C107.812 26.2437 108.015 26.8517 109.129 26.8517C109.839 26.8517 110.447 26.4463 110.953 26.041V20.468C110.953 20.164 111.156 20.0628 111.358 20.0628H112.574C112.878 20.0628 112.98 20.164 112.98 20.468V27.865C112.98 28.2703 112.878 28.3716 112.574 28.3716Z" fill="#FFFDF1"/>
<path d="M117.438 28.5742C116.526 28.5742 115.513 28.2702 114.702 27.9663C114.5 27.8649 114.5 27.7636 114.5 27.6623C114.5 27.561 114.5 27.561 114.5 27.4596L114.804 26.5477C114.905 26.345 114.905 26.345 115.006 26.345C115.108 26.345 115.108 26.345 115.209 26.345C116.02 26.649 116.83 26.8517 117.438 26.8517C118.249 26.8517 118.755 26.5477 118.755 25.9397C118.755 25.4331 118.451 25.2304 117.742 24.9264L116.324 24.4198C115.31 24.0145 114.5 23.3052 114.5 22.0893C114.5 20.3667 116.121 19.5561 117.641 19.5561C118.451 19.5561 119.262 19.6574 120.174 20.0628C120.275 20.1641 120.377 20.1641 120.377 20.2654C120.377 20.3668 120.377 20.3667 120.377 20.468L120.073 21.38C120.073 21.4813 119.971 21.5827 119.87 21.5827C119.769 21.5827 119.769 21.5827 119.667 21.5827C119.059 21.38 118.35 21.1773 117.742 21.1773C117.033 21.1773 116.628 21.5826 116.628 21.9879C116.628 22.3932 116.83 22.5959 117.539 22.8999L119.161 23.5078C120.073 23.9131 120.782 24.6225 120.782 25.7371C120.782 27.6623 119.161 28.5742 117.438 28.5742Z" fill="#FFFDF1"/>
<path d="M156.652 28.5742C155.74 28.5742 154.726 28.2702 153.916 27.9663C153.713 27.8649 153.713 27.7636 153.713 27.6623C153.713 27.561 153.713 27.561 153.713 27.4596L154.017 26.5477C154.119 26.345 154.119 26.345 154.22 26.345C154.321 26.345 154.321 26.345 154.423 26.345C155.233 26.649 156.044 26.8517 156.652 26.8517C157.462 26.8517 157.969 26.5477 157.969 25.9397C157.969 25.4331 157.665 25.2304 156.956 24.9264L155.537 24.4198C154.524 24.0145 153.713 23.3052 153.713 22.0893C153.713 20.3667 155.334 19.5561 156.854 19.5561C157.665 19.5561 158.476 19.6574 159.388 20.0628C159.489 20.1641 159.59 20.1641 159.59 20.2654C159.59 20.3668 159.59 20.3667 159.59 20.468L159.286 21.38C159.286 21.4813 159.185 21.5827 159.084 21.5827C158.982 21.5827 158.982 21.5827 158.881 21.5827C158.273 21.38 157.564 21.1773 156.956 21.1773C156.246 21.1773 155.841 21.5826 155.841 21.9879C155.841 22.3932 156.044 22.5959 156.753 22.8999L158.374 23.5078C159.286 23.9131 159.995 24.6225 159.995 25.7371C160.097 27.6623 158.476 28.5742 156.652 28.5742Z" fill="#FFFDF1"/>
<path d="M129.293 24.6225H124.126C124.227 25.9397 125.24 26.953 126.659 26.953C127.368 26.953 128.179 26.7503 128.787 26.5477C128.888 26.5477 128.888 26.4464 128.989 26.4464C129.091 26.4464 129.192 26.5477 129.192 26.649L129.395 27.5609C129.395 27.6623 129.395 27.7636 129.395 27.7636C129.395 27.8649 129.293 27.9662 129.091 28.0676C128.179 28.4729 127.064 28.6756 126.152 28.6756C123.416 28.6756 121.795 26.953 121.795 24.2171C121.795 21.5826 123.518 19.7588 126.152 19.7588C127.267 19.7588 128.077 20.1641 128.685 20.7721C129.496 21.5827 129.699 22.6973 129.699 23.9132V24.2171C129.901 24.5211 129.699 24.6225 129.293 24.6225ZM127.773 23.0012C127.773 22.0893 127.166 21.2787 126.152 21.2787C125.038 21.2787 124.328 22.1906 124.227 23.2039H127.875C127.773 23.2039 127.773 23.0012 127.773 23.0012Z" fill="#FFFDF1"/>
<path d="M138.21 28.3716H137.096C136.893 28.3716 136.69 28.2702 136.69 28.0676V27.6623C135.88 28.2703 135.069 28.6756 134.056 28.6756C132.131 28.6756 131.32 27.4596 131.32 25.5344V20.3667C131.32 20.0627 131.523 19.9614 131.827 19.9614H133.042C133.346 19.9614 133.448 20.0627 133.448 20.3667V25.2304C133.448 26.2437 133.65 26.8517 134.765 26.8517C135.474 26.8517 136.082 26.4463 136.589 26.041V20.468C136.589 20.164 136.792 20.0628 136.994 20.0628H138.21C138.514 20.0628 138.615 20.164 138.615 20.468V27.865C138.615 28.2703 138.514 28.3716 138.21 28.3716Z" fill="#FFFDF1"/>
<path d="M152.295 28.3716H150.977C150.673 28.3716 150.471 28.2702 150.471 27.9663V23.1026C150.471 22.1906 150.471 21.4813 149.356 21.4813C148.647 21.4813 147.938 21.7853 147.33 22.292C147.33 22.4946 147.431 24.8251 147.431 25.0277V27.9663C147.431 28.2702 147.33 28.3716 147.026 28.3716H145.911C145.607 28.3716 145.404 28.2702 145.404 27.9663V23.1026C145.404 22.1906 145.404 21.4813 144.29 21.4813C143.581 21.4813 142.871 21.8866 142.365 22.3933V27.9663C142.365 28.2702 142.263 28.3716 141.959 28.3716H140.845C140.541 28.3716 140.338 28.2702 140.338 27.9663V20.2654C140.338 19.9614 140.541 19.8601 140.743 19.8601H141.858C142.162 19.8601 142.263 19.9614 142.263 20.1641V20.5694C142.973 19.9614 143.884 19.5561 144.796 19.5561C145.911 19.5561 146.418 20.0627 146.823 20.6707C147.634 19.9614 148.748 19.5561 149.863 19.5561C151.18 19.5561 151.687 20.1641 152.092 20.8734C152.396 21.4813 152.497 22.2919 152.497 23.4065V27.865C152.7 28.2703 152.497 28.3716 152.295 28.3716Z" fill="#FFFDF1"/>
<path d="M95.6528 44.2799C94.6395 44.2799 93.3223 44.0773 92.309 43.6719C92.1063 43.5706 92.005 43.4693 92.005 43.368C92.005 43.2667 92.005 43.2666 92.005 43.1653L92.4103 42.0507C92.5116 41.8481 92.5116 41.7467 92.7143 41.7467C92.8156 41.7467 92.9169 41.7467 93.0183 41.8481C93.8289 42.1521 94.7408 42.3547 95.6528 42.3547C96.5647 42.3547 97.6793 41.8481 97.6793 40.8348C97.6793 40.0242 97.0714 39.6188 96.3621 39.2135L94.0315 38.099C92.8156 37.491 92.005 36.4777 92.005 35.0591C92.005 32.9313 94.1329 31.7154 96.0581 31.7154C97.1727 31.7154 98.1859 31.918 99.1992 32.3233C99.4019 32.4246 99.5032 32.5259 99.5032 32.6273C99.5032 32.7286 99.5032 32.7286 99.4019 32.8299L98.9966 33.9446C98.8952 34.1472 98.7939 34.2485 98.6926 34.2485C98.5913 34.2485 98.4899 34.2485 98.3886 34.1472C97.6793 33.8432 96.7674 33.6405 96.0581 33.6405C95.2475 33.6405 94.2342 33.9446 94.2342 34.9578C94.2342 35.6671 94.9435 36.0724 95.4501 36.3764L97.3753 37.2884C98.7939 37.9976 99.7059 38.9096 99.7059 40.5308C99.9085 42.9627 97.882 44.2799 95.6528 44.2799Z" fill="#FFFDF1"/>
<path d="M107.812 43.7733C107.001 44.1786 106.191 44.2799 105.279 44.2799C102.543 44.2799 101.124 42.5573 101.124 39.9228C101.124 37.187 102.746 35.3631 105.482 35.3631C106.292 35.3631 107.103 35.5658 107.812 35.8697C107.913 35.9711 108.015 35.9711 108.015 36.0724C108.015 36.1737 108.015 36.2751 108.015 36.2751L107.812 37.187C107.812 37.3896 107.711 37.3897 107.609 37.3897C107.508 37.3897 107.508 37.3897 107.407 37.2884C106.9 37.0857 106.292 36.883 105.684 36.883C104.164 36.883 103.354 37.9976 103.354 39.7202C103.354 41.4427 104.164 42.5574 105.684 42.5574C106.393 42.5574 106.9 42.456 107.508 42.152C107.609 42.152 107.609 42.0507 107.711 42.0507C107.812 42.0507 107.913 42.152 107.913 42.2533L108.116 43.064C108.116 43.1653 108.217 43.2667 108.217 43.368C108.116 43.672 108.015 43.6719 107.812 43.7733Z" fill="#FFFDF1"/>
<path d="M112.98 44.2799C110.143 44.2799 108.825 42.3547 108.825 39.8215C108.825 37.2884 110.345 35.3631 113.081 35.3631C115.918 35.3631 117.235 37.2884 117.235 39.8215C117.337 42.3547 115.817 44.2799 112.98 44.2799ZM113.081 36.9844C111.561 36.9844 111.055 38.3016 111.055 39.7202C111.055 41.1387 111.46 42.5574 113.081 42.5574C114.601 42.5574 115.108 41.1387 115.108 39.7202C115.108 38.4029 114.702 36.9844 113.081 36.9844Z" fill="#FFFDF1"/>
<path d="M123.822 43.8746C123.315 44.0773 122.606 44.2799 121.896 44.2799C120.985 44.2799 120.275 44.0773 119.769 43.5707C119.262 42.9627 119.161 42.2534 119.161 40.9361V36.9844H118.35C118.046 36.9844 117.945 36.883 117.945 36.5791V35.8698C117.945 35.6671 118.046 35.5658 118.249 35.5658H119.161V33.6406C119.161 33.3366 119.363 33.2353 119.566 33.2353L120.782 33.0326H120.883C121.086 33.0326 121.187 33.134 121.187 33.4379V35.5658H123.214C123.416 35.5658 123.518 35.6671 123.518 35.8698V36.6804C123.518 36.883 123.416 36.9844 123.214 36.9844H121.289V41.0375C121.289 41.5441 121.289 41.9494 121.491 42.2534C121.694 42.456 121.896 42.6587 122.302 42.6587C122.707 42.6587 123.112 42.5574 123.416 42.456C123.518 42.456 123.518 42.456 123.619 42.456C123.72 42.456 123.822 42.5574 123.822 42.6587L124.024 43.5707C124.024 43.672 124.024 43.672 124.024 43.672C124.024 43.7733 123.923 43.8746 123.822 43.8746Z" fill="#FFFDF1"/>
<path d="M138.109 44.0773H137.298C136.386 44.0773 135.981 43.672 135.88 43.064C135.474 43.672 134.258 44.2799 133.346 44.2799C130.915 44.2799 129.699 42.2534 129.699 39.9228C129.699 36.883 131.523 35.2618 133.448 35.2618C134.36 35.2618 135.272 35.6671 135.677 36.2751V35.7685C135.677 35.5658 135.88 35.4645 136.082 35.4645H137.298C137.501 35.4645 137.704 35.5658 137.704 35.8698V41.9494C137.704 42.152 137.704 42.3547 137.805 42.456C137.906 42.5573 137.906 42.5574 138.008 42.5574H138.109C138.311 42.5574 138.413 42.6587 138.413 42.8614V43.672C138.413 43.9759 138.311 44.0773 138.109 44.0773ZM135.576 37.9977C135.272 37.491 134.461 37.0857 133.853 37.0857C132.738 37.0857 131.827 37.9976 131.827 39.8215C131.827 41.3414 132.435 42.5574 133.65 42.5574C134.562 42.5574 135.272 41.9494 135.474 41.3414L135.576 37.9977Z" fill="#FFFDF1"/>
<path d="M146.924 44.0773H145.708C145.404 44.0773 145.303 43.8746 145.303 43.5706V38.8083C145.303 37.795 144.999 37.187 143.986 37.187C143.277 37.187 142.466 37.5923 141.959 37.9977V43.5706C141.959 43.8746 141.858 43.9759 141.554 43.9759H140.237C139.933 43.9759 139.831 43.8746 139.831 43.5706V35.9711C139.831 35.6671 139.933 35.5658 140.237 35.5658H141.351C141.554 35.5658 141.757 35.6671 141.757 35.8697V36.3764C142.567 35.7684 143.58 35.3631 144.594 35.3631C146.519 35.3631 147.33 36.5791 147.33 38.5043V43.6719C147.431 43.9759 147.228 44.0773 146.924 44.0773Z" fill="#FFFDF1"/>
<path d="M156.348 44.0773H155.233C154.929 44.0773 154.828 43.9759 154.828 43.7732V43.2666C154.321 43.8746 153.308 44.2799 152.396 44.2799C149.863 44.2799 148.647 42.2534 148.647 39.9228C148.647 37.491 150.065 35.3631 152.497 35.3631C153.308 35.3631 154.119 35.6671 154.625 36.1737V32.222C154.625 31.918 154.726 31.8167 155.03 31.7154L156.348 31.5127H156.55C156.753 31.5127 156.854 31.614 156.854 31.8167V43.5706C156.652 43.976 156.55 44.0773 156.348 44.0773ZM154.524 37.8963C154.22 37.3897 153.511 36.9844 152.801 36.9844C151.383 36.9844 150.775 38.3016 150.775 39.7202C150.775 41.1387 151.281 42.456 152.7 42.456C153.308 42.456 154.119 42.0507 154.524 41.5441V37.8963Z" fill="#FFFDF1"/>
<path d="M157.158 11.146C156.956 11.146 156.854 11.1459 156.854 11.0446C156.753 10.9433 156.753 10.842 156.753 10.7406V0.405271C156.753 0.10129 156.55 0 156.348 0H156.246L155.03 0.202605C154.828 0.202605 154.726 0.303957 154.726 0.607938V10.7406V10.9433C154.726 11.6526 154.828 11.9566 154.929 12.1593C155.132 12.4632 155.537 12.6659 156.145 12.6659H157.26C157.462 12.6659 157.564 12.5645 157.564 12.3619V11.5513C157.462 11.2473 157.361 11.146 157.158 11.146Z" fill="#FFFDF1"/>
<path d="M128.179 42.6587C127.976 42.6587 127.875 42.6587 127.875 42.5574C127.773 42.456 127.773 42.3547 127.773 42.2533V31.918C127.773 31.614 127.571 31.5127 127.368 31.5127H127.267L126.051 31.7154C125.848 31.7154 125.747 31.8167 125.747 32.1206V42.2533V42.456C125.747 43.1653 125.848 43.4693 125.95 43.6719C126.152 43.9759 126.558 44.1786 127.166 44.1786H128.28C128.483 44.1786 128.584 44.0773 128.584 43.8746V43.064C128.483 42.6587 128.381 42.6587 128.179 42.6587Z" fill="#FFFDF1"/>
</svg>
