<svg width="75" height="75" viewBox="0 0 75 75" fill="none" xmlns="http://www.w3.org/2000/svg">
<mask id="path-1-inside-1_4_184" fill="white">
<path d="M7.36402 70C7.17172 70 6.98456 69.975 6.80252 69.9275C6.2641 69.7775 5.79746 69.425 5.518 68.9625C5.26417 68.535 5.08982 67.84 5.31032 67.32C5.35134 66.7825 5.32314 66.2375 5.2975 65.6925C5.27699 65.275 5.25648 64.86 5.25904 64.4425C5.26417 63.68 5.23084 62.915 5.19494 62.15C5.17187 61.68 5.15136 61.21 5.13854 60.74C5.09751 59.2875 5.06931 57.835 5.06931 56.38C5.07188 54.4025 5.05136 46.695 5.05136 46.695L5.03085 43.4125C5.01291 41.2825 4.99752 39.1525 5.01803 37.0225L5.03342 35.79C5.0488 34.6375 5.06675 33.4825 5.06418 32.3275C5.05906 31.3525 5.00009 26.82 5.00009 26.82C4.99496 26.2775 5.22058 25.7625 5.63337 25.37C5.61799 25.01 5.8231 24.57 6.14872 24.2525C6.58715 23.825 7.07173 23.695 7.66399 23.63C9.54078 23.435 11.3971 23.4075 12.9636 23.4075H13.4072C14.6404 23.4075 15.8711 23.375 17.1043 23.3325C18.2863 23.285 19.4708 23.2575 20.6502 23.235H22.1834L23.3552 23.205L23.7423 23.215L23.709 21.97C23.6705 20.7175 23.6346 19.4625 23.6372 18.21L23.6423 11.7375C23.6346 10.3425 23.6295 8.9475 23.6859 7.5525C23.7269 6.56 24.4474 5.7475 25.4319 5.5775C25.7011 5.275 26.2062 5.0725 26.7267 5.0725C27.8061 5.0775 28.883 5.0975 29.9598 5.1175L31.0264 5.13C31.2956 5.13 31.5623 5.125 31.8315 5.1125C33.0468 5.055 34.2569 5.0225 35.4697 5C36.4209 5 37.2259 5.6675 37.4208 6.59C37.531 6.815 37.5926 7.1 37.5875 7.38C37.5798 8.0125 37.5464 8.645 37.5003 9.28C37.3849 10.9225 37.3336 12.585 37.3388 14.3675L37.3413 14.8775L37.6798 14.8925C39.3514 14.955 41.0231 15.0175 42.6948 15.0175C43.6998 15.0175 44.7023 14.9925 45.7048 14.935C46.6637 14.8775 47.6252 14.8575 48.5867 14.8375L50.2019 14.795C50.6327 14.7825 51.0583 14.7675 51.489 14.7675H52.5735L53.2273 14.7375C53.4478 14.7375 53.635 14.7625 53.8017 14.8175C54.1888 14.9425 54.5349 15.1775 54.8324 15.515C55.5144 15.84 55.963 16.5425 55.9271 17.29L55.8682 18.5225C55.7887 20.1225 55.7118 21.7175 55.6913 23.3225C55.6707 24.935 55.6759 26.5575 55.681 28.1725V28.3175C56.8219 28.2775 57.9629 28.26 59.1013 28.2425C59.8833 28.23 60.6704 28.22 61.4498 28.2025C62.1498 28.1825 62.8497 28.1775 63.5471 28.1775L65.0957 28.17C65.4547 28.1575 65.6982 28.1475 65.9444 28.1475C66.1649 28.1475 66.3854 28.155 66.6084 28.175C67.075 28.2175 67.6135 28.325 68.0775 28.7775L68.2519 29.015C68.957 29.3075 69.4749 30.0425 69.5056 30.875C69.5672 32.3025 69.5441 33.7275 69.5185 35.155L69.5005 36.1875C69.4774 37.96 69.4646 39.7375 69.4723 41.51L69.4749 42.0975C69.4774 43.5025 69.48 44.9025 69.5518 46.31C69.6338 47.9125 69.6825 49.515 69.7236 51.12C69.7774 52.9425 69.7646 54.765 69.7518 56.59C69.7441 57.78 69.7338 58.9675 69.7441 60.1525L69.7467 60.7475C69.7441 61.165 69.7441 61.5775 69.762 61.9925C69.7774 62.39 69.8056 62.785 69.8338 63.1825L69.8723 63.745C69.8979 64.0825 69.9082 64.42 69.9184 64.7625L69.9979 66.4975C70.0159 66.9225 69.9184 67.305 69.6928 67.7275C69.4082 68.2675 68.8339 68.6125 68.1237 68.67C67.834 68.93 67.3212 69.1025 66.8135 69.1025C66.6392 69.1025 66.4648 69.0825 66.2931 69.045C65.8315 69 65.3752 68.985 64.9214 68.97L64.3522 68.95C63.5445 68.9225 62.7343 68.9125 61.9241 68.9125L59.1577 68.9275C56.8014 68.9425 54.4478 68.9575 52.0941 69.0175C48.3174 69.12 44.5382 69.14 40.7565 69.145C37.0875 69.145 33.4288 69.2025 29.7598 69.2825C28.3881 69.315 27.0216 69.3175 25.655 69.3175H24.1756C22.2886 69.3175 20.4041 69.32 18.5196 69.375L17.5428 69.4075C16.3711 69.4475 15.1993 69.4875 14.0276 69.4875L12.4098 69.455C11.9919 69.44 11.574 69.425 11.156 69.425L10.8279 69.4275C10.0869 69.45 9.34849 69.46 8.60752 69.4675C8.64341 69.555 8.57162 69.6425 8.45368 69.7075C8.12806 69.9025 7.75117 70 7.36402 70ZM10.1202 65.3825C11.7688 65.4225 13.4149 65.465 15.066 65.465C15.066 65.465 18.1735 65.44 19.3734 65.4275C20.8912 65.4075 22.4091 65.39 23.9269 65.39L24.7627 65.3825C24.7551 65.0375 24.732 64.695 24.7063 64.355C24.6833 64.04 24.6781 63.725 24.673 63.41L24.6653 63.08L24.1141 63.0625C23.4885 63.0375 22.868 63.02 22.2424 63.02H21.9014C20.6579 63.0375 19.417 63.0525 18.1812 63.0525C18.1812 63.0525 13.8712 63.0625 13.5277 63.07C12.497 63.11 11.4663 63.21 10.433 63.3075L9.30746 63.4125C9.30746 63.4125 9.32541 64.2125 9.34336 64.56L9.38438 65.3625L10.1202 65.3825ZM28.3266 52.4925C28.3625 53.4225 28.4112 54.35 28.4625 55.2775C28.5086 56.12 28.5548 56.9625 28.5907 57.81C28.6445 59.1425 28.6676 60.4725 28.6753 61.81L28.6778 62.135C28.6855 62.7825 28.6932 63.4275 28.7291 64.0775C28.7471 64.5 28.765 64.9125 28.7958 65.335C30.1957 65.3225 31.8058 65.295 33.4262 65.2575L33.3852 64.835C33.2878 63.7375 33.3006 62.8025 33.3108 61.8675L33.3262 50.0725C32.7083 50.08 32.093 50.13 31.4776 50.185L28.2753 50.4575C28.2804 50.4575 28.3061 51.98 28.3266 52.4925ZM37.6259 63.0825C37.6362 63.7875 37.6567 64.4925 37.7285 65.195C40.5744 65.155 43.4204 65.1225 46.2663 65.1125C48.1841 65.105 50.1045 65.07 52.0274 65.02L52.2941 65.015C52.253 64.635 52.23 64.385 52.2172 64.135C52.2172 64.135 52.1479 62.9275 52.1325 62.5925L50.8916 62.64C49.9225 62.6825 48.9507 62.6925 47.9816 62.7025C47.9816 62.7025 45.1023 62.7425 44.487 62.7475C43.4922 62.755 42.4974 62.765 41.5051 62.8125C41.0154 62.84 40.5283 62.88 40.0386 62.9225L39.0976 63C38.6822 63.0325 38.2643 63.05 37.8464 63.07L37.6259 63.0825ZM56.2553 60.085C56.2681 60.74 56.2784 61.3925 56.304 62.0475L56.3451 63.74C56.3604 64.1675 56.3989 64.5875 56.4425 65.0125L57.2014 64.945L57.8783 64.935C59.7551 64.9075 61.6293 64.85 63.5086 64.7925L65.9649 64.695C65.9649 64.695 65.9392 63.885 65.9238 63.5825C65.8444 62.4175 65.8316 61.245 65.8444 60.0725L65.8572 59.4775L65.1983 59.49L64.4188 59.4575C64.1983 59.4425 63.9753 59.425 63.7522 59.425C63.2574 59.43 62.7625 59.4475 62.2677 59.465C61.4165 59.4925 60.5678 59.525 59.7192 59.56C58.5629 59.6075 57.4065 59.6575 56.2476 59.6775L56.2553 60.085ZM9.20747 59.3675C9.89973 59.3325 10.592 59.3075 11.2842 59.28C12.0585 59.25 12.8354 59.2225 13.6123 59.18C14.984 59.105 16.3582 59.1025 17.7351 59.1H22.1399C22.645 59.1025 23.15 59.1175 23.6551 59.1325L24.4884 59.155L24.5551 59.205C24.5525 58.7975 24.5217 57.55 24.5217 57.55L23.8115 57.525C23.327 57.5025 22.8398 57.4975 22.3552 57.495L16.3044 57.4425C13.961 57.4425 11.5637 57.52 9.1767 57.6775C9.18183 58.24 9.19465 58.805 9.20747 59.3675ZM37.549 59.15L38.1823 59.1375C39.3181 59.115 40.4539 59.0975 41.5897 59.035C42.5717 58.9825 43.5537 58.955 44.5331 58.9275L47.4816 58.8375C48.6379 58.8025 49.7917 58.77 50.9429 58.6825L51.9992 58.6L51.9479 56.9825L49.7173 56.95L48.361 56.99C47.2637 57.03 46.1612 57.0675 45.0613 57.095L41.8538 57.1925C40.4129 57.24 38.9694 57.2875 37.5259 57.3125L37.549 59.15ZM56.9271 55.73C57.6116 55.7425 58.3013 55.755 58.991 55.755C59.714 55.75 60.4422 55.7325 61.1652 55.715L62.2498 55.69C63.4753 55.6675 64.7009 55.6175 65.9213 55.565C65.9238 54.335 65.9239 52.8625 65.8982 51.395C65.8649 49.725 65.788 48.0575 65.7008 46.3925C65.6239 44.785 65.6008 43.175 65.5828 41.57L65.5418 36.1975C65.5264 34.88 65.4675 33.5625 65.4008 32.245C64.5368 32.2075 63.6727 32.195 62.8036 32.195L61.4549 32.205C60.6088 32.22 59.7653 32.28 58.9218 32.3375L55.7143 32.5425L55.781 38.5475C55.822 40.955 55.8477 43.3625 55.8733 45.77L55.9118 48.9675C55.9118 48.9675 55.9861 52.515 55.9938 53.255C55.9964 54.0775 56.0066 54.895 56.04 55.7175L56.9271 55.73ZM9.16645 29.27C9.15107 30.325 9.13568 31.3775 9.13312 32.4325C9.12799 33.335 9.14081 34.235 9.15363 35.135L9.17414 37.225C9.17927 38.11 9.16645 42.14 9.16645 42.14C9.16645 43.4325 9.15363 44.7275 9.14081 46.02C9.12286 47.915 9.10492 49.81 9.12543 51.705L9.13568 53.7075C10.2356 53.675 11.3381 53.675 12.438 53.675H12.8585C14.3558 53.675 15.8531 53.6675 17.3505 53.6175C18.2735 53.585 19.1965 53.5775 20.1195 53.575C20.763 53.57 24.391 53.515 24.391 53.515L24.3705 53.1275C24.3192 52.1575 24.2705 51.19 24.2448 50.22C24.2089 48.825 24.191 47.43 24.173 46.0325L24.1628 45.3325C24.15 44.3275 24.1089 43.3225 24.0679 42.3175L24.0064 40.74C23.9602 39.3225 23.9372 37.9 23.9218 36.475C23.909 35.4175 23.9115 34.355 23.9141 33.2975C23.9192 31.47 23.9243 29.6475 23.8423 27.82L23.8346 27.4625C23.7987 27.4625 22.7039 27.4125 22.2604 27.4125H20.5246C19.8759 27.395 19.2273 27.3825 18.5786 27.3825C18.053 27.3825 17.5274 27.39 17.0018 27.4125C16.1916 27.4475 15.3865 27.4525 14.5789 27.455L13.0251 27.47C11.8996 27.4925 10.6766 27.575 9.18952 27.7225L9.16645 29.27ZM37.8746 53.46C38.631 53.48 39.3899 53.4975 40.1462 53.4975L40.8872 53.4925C42.2717 53.465 43.6614 53.435 45.0433 53.385C45.7381 53.3575 49.9378 53.165 49.9378 53.165C50.3481 53.145 50.7557 53.125 51.166 53.125L51.8454 53.115L51.8223 48.525C51.8095 46.2825 51.7839 44.04 51.7608 41.7975L51.6967 35.6475C51.6685 33.24 51.6428 30.8275 51.6428 28.4225L51.6351 25.7175C51.6275 23.4325 51.6198 21.1475 51.6634 18.865L51.2659 18.8725L50.2506 18.8625L47.4713 18.875L46.6406 18.905C46.2919 18.92 45.9458 18.935 45.5971 18.9375L41.5769 18.9325C40.9693 18.935 40.359 18.95 39.7488 18.9625C39.0822 18.9775 38.4156 18.9925 37.749 18.9925L37.3695 18.99L37.367 20.99C37.367 22.03 37.367 23.0675 37.3439 24.1075C37.308 25.75 37.2952 27.3925 37.3131 29.03L37.3182 29.585C37.3208 30.1525 37.3259 30.72 37.3541 31.2825C37.39 32.0175 37.4234 32.7425 37.4259 33.475C37.4285 34.8525 37.4131 36.23 37.3952 37.61L37.39 38.18C37.367 39.915 37.3439 41.57 37.3952 43.225C37.449 44.9925 37.5054 46.735 37.5182 48.48C37.5311 49.8875 37.5285 51.29 37.5259 52.695V53.45L37.8746 53.46ZM27.7471 10.2025C27.6472 11.9175 27.642 13.6375 27.6472 15.3525V16.66C27.6446 17.8125 27.642 18.9675 27.6856 20.12C27.7189 21.0075 27.7369 21.89 27.7574 22.7775C27.7728 23.5825 27.7907 24.385 27.8189 25.1875L27.8805 26.62C27.9266 27.6325 27.9728 28.645 27.9779 29.66L27.9958 34.0775L27.9779 35.775C27.9651 36.6575 27.9523 37.54 27.9728 38.42C27.9958 39.45 28.0369 40.48 28.0805 41.51L28.1292 42.6925C28.1702 43.9 28.1856 45.105 28.201 46.3125C29.2188 46.2375 30.2341 46.1775 31.252 46.1425L31.6571 46.125C32.2161 46.1 32.7724 46.0775 33.3288 46.0375C33.3185 45.0825 33.3006 44.1275 33.2852 43.1725C33.2467 41.0125 33.2083 38.85 33.2493 36.69L33.2647 35.9775C33.2955 34.62 33.3237 33.265 33.2955 31.9075C33.2801 30.98 33.2852 30.055 33.2903 29.125V12.6825C33.2903 11.705 33.3057 10.7275 33.3237 9.75L33.3314 9L31.8033 9.0675C30.5213 9.1075 29.2368 9.1225 27.9523 9.14L27.8061 9.1425L27.7471 10.2025ZM60.4499 47.33C59.9063 47.33 59.373 47.1175 58.991 46.7425C58.55 46.3175 58.4552 45.84 58.3859 45.3475C58.3654 45.1875 58.3731 45.0275 58.3834 44.87C58.3834 44.87 58.3706 43.13 58.3731 42.8325C58.3782 42.4925 58.3834 42.155 58.3731 41.815C58.3167 40.05 58.2629 38.2875 58.268 36.525C58.268 35.4275 59.2166 34.5025 60.3396 34.5025C60.8858 34.5025 61.4242 34.725 61.819 35.1125C62.2139 35.5 62.4215 36.0025 62.4164 36.5275C62.4113 37.0575 62.3472 39.4675 62.3472 39.4675C62.3421 39.995 62.3523 40.525 62.3626 41.0525L62.4497 44.1725C62.4574 44.5425 62.4651 44.915 62.5138 45.2775C62.5882 45.805 62.2651 46.3925 61.9139 46.74C61.5267 47.115 60.996 47.33 60.4499 47.33ZM16.2736 46.5025C15.184 46.5025 14.284 45.6275 14.2686 44.5525C14.2533 43.675 14.2686 42.795 14.2866 41.92L14.3045 40.85C14.3148 40.3375 14.325 39.8225 14.3071 39.31C14.2789 38.5825 14.1456 36.2025 14.1456 36.2025C14.1199 35.7025 14.3148 35.215 14.6943 34.8275C15.1019 34.41 15.6583 34.17 16.2223 34.17C17.3428 34.17 18.253 35.0525 18.2966 36.18C18.3632 37.8025 18.335 39.425 18.3042 41.045C18.2837 42.2125 18.2632 43.38 18.2786 44.55C18.2863 45.055 18.0812 45.5375 17.7043 45.9125C17.3248 46.2875 16.8018 46.5025 16.2736 46.5025ZM44.9433 38.145C44.3972 38.145 43.8383 37.905 43.446 37.4975C43.0794 37.12 42.8922 36.6475 42.923 36.1625C42.9563 35.5675 42.964 34.97 42.9717 34.3775L42.9871 33.5575C42.9948 32.8925 43.0178 32.2325 43.0383 31.57L43.064 30.7875C43.0896 29.87 43.0819 28.9475 43.0742 28.03C43.0665 27.0425 43.0563 26.0525 43.0922 25.065C43.1306 23.9375 44.0383 23.0575 45.1638 23.0575C45.7253 23.0575 46.2791 23.2925 46.6817 23.7075C47.0611 24.095 47.256 24.585 47.2303 25.085L47.1791 26.155C47.138 26.8825 47.0996 27.6075 47.0996 28.3375C47.0945 29.1875 47.0868 30.035 47.0586 30.885L47.0457 31.3025C47.0227 32.0825 46.9996 32.8675 46.9945 33.65C46.9945 34 46.9868 34.35 46.9765 34.7025C46.9611 35.19 46.9483 35.68 46.9611 36.1675C46.9791 36.665 46.7817 37.1475 46.4099 37.525C46.0202 37.92 45.4869 38.145 44.9433 38.145Z"/>
</mask>
<path d="M7.36402 70C7.17172 70 6.98456 69.975 6.80252 69.9275C6.2641 69.7775 5.79746 69.425 5.518 68.9625C5.26417 68.535 5.08982 67.84 5.31032 67.32C5.35134 66.7825 5.32314 66.2375 5.2975 65.6925C5.27699 65.275 5.25648 64.86 5.25904 64.4425C5.26417 63.68 5.23084 62.915 5.19494 62.15C5.17187 61.68 5.15136 61.21 5.13854 60.74C5.09751 59.2875 5.06931 57.835 5.06931 56.38C5.07188 54.4025 5.05136 46.695 5.05136 46.695L5.03085 43.4125C5.01291 41.2825 4.99752 39.1525 5.01803 37.0225L5.03342 35.79C5.0488 34.6375 5.06675 33.4825 5.06418 32.3275C5.05906 31.3525 5.00009 26.82 5.00009 26.82C4.99496 26.2775 5.22058 25.7625 5.63337 25.37C5.61799 25.01 5.8231 24.57 6.14872 24.2525C6.58715 23.825 7.07173 23.695 7.66399 23.63C9.54078 23.435 11.3971 23.4075 12.9636 23.4075H13.4072C14.6404 23.4075 15.8711 23.375 17.1043 23.3325C18.2863 23.285 19.4708 23.2575 20.6502 23.235H22.1834L23.3552 23.205L23.7423 23.215L23.709 21.97C23.6705 20.7175 23.6346 19.4625 23.6372 18.21L23.6423 11.7375C23.6346 10.3425 23.6295 8.9475 23.6859 7.5525C23.7269 6.56 24.4474 5.7475 25.4319 5.5775C25.7011 5.275 26.2062 5.0725 26.7267 5.0725C27.8061 5.0775 28.883 5.0975 29.9598 5.1175L31.0264 5.13C31.2956 5.13 31.5623 5.125 31.8315 5.1125C33.0468 5.055 34.2569 5.0225 35.4697 5C36.4209 5 37.2259 5.6675 37.4208 6.59C37.531 6.815 37.5926 7.1 37.5875 7.38C37.5798 8.0125 37.5464 8.645 37.5003 9.28C37.3849 10.9225 37.3336 12.585 37.3388 14.3675L37.3413 14.8775L37.6798 14.8925C39.3514 14.955 41.0231 15.0175 42.6948 15.0175C43.6998 15.0175 44.7023 14.9925 45.7048 14.935C46.6637 14.8775 47.6252 14.8575 48.5867 14.8375L50.2019 14.795C50.6327 14.7825 51.0583 14.7675 51.489 14.7675H52.5735L53.2273 14.7375C53.4478 14.7375 53.635 14.7625 53.8017 14.8175C54.1888 14.9425 54.5349 15.1775 54.8324 15.515C55.5144 15.84 55.963 16.5425 55.9271 17.29L55.8682 18.5225C55.7887 20.1225 55.7118 21.7175 55.6913 23.3225C55.6707 24.935 55.6759 26.5575 55.681 28.1725V28.3175C56.8219 28.2775 57.9629 28.26 59.1013 28.2425C59.8833 28.23 60.6704 28.22 61.4498 28.2025C62.1498 28.1825 62.8497 28.1775 63.5471 28.1775L65.0957 28.17C65.4547 28.1575 65.6982 28.1475 65.9444 28.1475C66.1649 28.1475 66.3854 28.155 66.6084 28.175C67.075 28.2175 67.6135 28.325 68.0775 28.7775L68.2519 29.015C68.957 29.3075 69.4749 30.0425 69.5056 30.875C69.5672 32.3025 69.5441 33.7275 69.5185 35.155L69.5005 36.1875C69.4774 37.96 69.4646 39.7375 69.4723 41.51L69.4749 42.0975C69.4774 43.5025 69.48 44.9025 69.5518 46.31C69.6338 47.9125 69.6825 49.515 69.7236 51.12C69.7774 52.9425 69.7646 54.765 69.7518 56.59C69.7441 57.78 69.7338 58.9675 69.7441 60.1525L69.7467 60.7475C69.7441 61.165 69.7441 61.5775 69.762 61.9925C69.7774 62.39 69.8056 62.785 69.8338 63.1825L69.8723 63.745C69.8979 64.0825 69.9082 64.42 69.9184 64.7625L69.9979 66.4975C70.0159 66.9225 69.9184 67.305 69.6928 67.7275C69.4082 68.2675 68.8339 68.6125 68.1237 68.67C67.834 68.93 67.3212 69.1025 66.8135 69.1025C66.6392 69.1025 66.4648 69.0825 66.2931 69.045C65.8315 69 65.3752 68.985 64.9214 68.97L64.3522 68.95C63.5445 68.9225 62.7343 68.9125 61.9241 68.9125L59.1577 68.9275C56.8014 68.9425 54.4478 68.9575 52.0941 69.0175C48.3174 69.12 44.5382 69.14 40.7565 69.145C37.0875 69.145 33.4288 69.2025 29.7598 69.2825C28.3881 69.315 27.0216 69.3175 25.655 69.3175H24.1756C22.2886 69.3175 20.4041 69.32 18.5196 69.375L17.5428 69.4075C16.3711 69.4475 15.1993 69.4875 14.0276 69.4875L12.4098 69.455C11.9919 69.44 11.574 69.425 11.156 69.425L10.8279 69.4275C10.0869 69.45 9.34849 69.46 8.60752 69.4675C8.64341 69.555 8.57162 69.6425 8.45368 69.7075C8.12806 69.9025 7.75117 70 7.36402 70ZM10.1202 65.3825C11.7688 65.4225 13.4149 65.465 15.066 65.465C15.066 65.465 18.1735 65.44 19.3734 65.4275C20.8912 65.4075 22.4091 65.39 23.9269 65.39L24.7627 65.3825C24.7551 65.0375 24.732 64.695 24.7063 64.355C24.6833 64.04 24.6781 63.725 24.673 63.41L24.6653 63.08L24.1141 63.0625C23.4885 63.0375 22.868 63.02 22.2424 63.02H21.9014C20.6579 63.0375 19.417 63.0525 18.1812 63.0525C18.1812 63.0525 13.8712 63.0625 13.5277 63.07C12.497 63.11 11.4663 63.21 10.433 63.3075L9.30746 63.4125C9.30746 63.4125 9.32541 64.2125 9.34336 64.56L9.38438 65.3625L10.1202 65.3825ZM28.3266 52.4925C28.3625 53.4225 28.4112 54.35 28.4625 55.2775C28.5086 56.12 28.5548 56.9625 28.5907 57.81C28.6445 59.1425 28.6676 60.4725 28.6753 61.81L28.6778 62.135C28.6855 62.7825 28.6932 63.4275 28.7291 64.0775C28.7471 64.5 28.765 64.9125 28.7958 65.335C30.1957 65.3225 31.8058 65.295 33.4262 65.2575L33.3852 64.835C33.2878 63.7375 33.3006 62.8025 33.3108 61.8675L33.3262 50.0725C32.7083 50.08 32.093 50.13 31.4776 50.185L28.2753 50.4575C28.2804 50.4575 28.3061 51.98 28.3266 52.4925ZM37.6259 63.0825C37.6362 63.7875 37.6567 64.4925 37.7285 65.195C40.5744 65.155 43.4204 65.1225 46.2663 65.1125C48.1841 65.105 50.1045 65.07 52.0274 65.02L52.2941 65.015C52.253 64.635 52.23 64.385 52.2172 64.135C52.2172 64.135 52.1479 62.9275 52.1325 62.5925L50.8916 62.64C49.9225 62.6825 48.9507 62.6925 47.9816 62.7025C47.9816 62.7025 45.1023 62.7425 44.487 62.7475C43.4922 62.755 42.4974 62.765 41.5051 62.8125C41.0154 62.84 40.5283 62.88 40.0386 62.9225L39.0976 63C38.6822 63.0325 38.2643 63.05 37.8464 63.07L37.6259 63.0825ZM56.2553 60.085C56.2681 60.74 56.2784 61.3925 56.304 62.0475L56.3451 63.74C56.3604 64.1675 56.3989 64.5875 56.4425 65.0125L57.2014 64.945L57.8783 64.935C59.7551 64.9075 61.6293 64.85 63.5086 64.7925L65.9649 64.695C65.9649 64.695 65.9392 63.885 65.9238 63.5825C65.8444 62.4175 65.8316 61.245 65.8444 60.0725L65.8572 59.4775L65.1983 59.49L64.4188 59.4575C64.1983 59.4425 63.9753 59.425 63.7522 59.425C63.2574 59.43 62.7625 59.4475 62.2677 59.465C61.4165 59.4925 60.5678 59.525 59.7192 59.56C58.5629 59.6075 57.4065 59.6575 56.2476 59.6775L56.2553 60.085ZM9.20747 59.3675C9.89973 59.3325 10.592 59.3075 11.2842 59.28C12.0585 59.25 12.8354 59.2225 13.6123 59.18C14.984 59.105 16.3582 59.1025 17.7351 59.1H22.1399C22.645 59.1025 23.15 59.1175 23.6551 59.1325L24.4884 59.155L24.5551 59.205C24.5525 58.7975 24.5217 57.55 24.5217 57.55L23.8115 57.525C23.327 57.5025 22.8398 57.4975 22.3552 57.495L16.3044 57.4425C13.961 57.4425 11.5637 57.52 9.1767 57.6775C9.18183 58.24 9.19465 58.805 9.20747 59.3675ZM37.549 59.15L38.1823 59.1375C39.3181 59.115 40.4539 59.0975 41.5897 59.035C42.5717 58.9825 43.5537 58.955 44.5331 58.9275L47.4816 58.8375C48.6379 58.8025 49.7917 58.77 50.9429 58.6825L51.9992 58.6L51.9479 56.9825L49.7173 56.95L48.361 56.99C47.2637 57.03 46.1612 57.0675 45.0613 57.095L41.8538 57.1925C40.4129 57.24 38.9694 57.2875 37.5259 57.3125L37.549 59.15ZM56.9271 55.73C57.6116 55.7425 58.3013 55.755 58.991 55.755C59.714 55.75 60.4422 55.7325 61.1652 55.715L62.2498 55.69C63.4753 55.6675 64.7009 55.6175 65.9213 55.565C65.9238 54.335 65.9239 52.8625 65.8982 51.395C65.8649 49.725 65.788 48.0575 65.7008 46.3925C65.6239 44.785 65.6008 43.175 65.5828 41.57L65.5418 36.1975C65.5264 34.88 65.4675 33.5625 65.4008 32.245C64.5368 32.2075 63.6727 32.195 62.8036 32.195L61.4549 32.205C60.6088 32.22 59.7653 32.28 58.9218 32.3375L55.7143 32.5425L55.781 38.5475C55.822 40.955 55.8477 43.3625 55.8733 45.77L55.9118 48.9675C55.9118 48.9675 55.9861 52.515 55.9938 53.255C55.9964 54.0775 56.0066 54.895 56.04 55.7175L56.9271 55.73ZM9.16645 29.27C9.15107 30.325 9.13568 31.3775 9.13312 32.4325C9.12799 33.335 9.14081 34.235 9.15363 35.135L9.17414 37.225C9.17927 38.11 9.16645 42.14 9.16645 42.14C9.16645 43.4325 9.15363 44.7275 9.14081 46.02C9.12286 47.915 9.10492 49.81 9.12543 51.705L9.13568 53.7075C10.2356 53.675 11.3381 53.675 12.438 53.675H12.8585C14.3558 53.675 15.8531 53.6675 17.3505 53.6175C18.2735 53.585 19.1965 53.5775 20.1195 53.575C20.763 53.57 24.391 53.515 24.391 53.515L24.3705 53.1275C24.3192 52.1575 24.2705 51.19 24.2448 50.22C24.2089 48.825 24.191 47.43 24.173 46.0325L24.1628 45.3325C24.15 44.3275 24.1089 43.3225 24.0679 42.3175L24.0064 40.74C23.9602 39.3225 23.9372 37.9 23.9218 36.475C23.909 35.4175 23.9115 34.355 23.9141 33.2975C23.9192 31.47 23.9243 29.6475 23.8423 27.82L23.8346 27.4625C23.7987 27.4625 22.7039 27.4125 22.2604 27.4125H20.5246C19.8759 27.395 19.2273 27.3825 18.5786 27.3825C18.053 27.3825 17.5274 27.39 17.0018 27.4125C16.1916 27.4475 15.3865 27.4525 14.5789 27.455L13.0251 27.47C11.8996 27.4925 10.6766 27.575 9.18952 27.7225L9.16645 29.27ZM37.8746 53.46C38.631 53.48 39.3899 53.4975 40.1462 53.4975L40.8872 53.4925C42.2717 53.465 43.6614 53.435 45.0433 53.385C45.7381 53.3575 49.9378 53.165 49.9378 53.165C50.3481 53.145 50.7557 53.125 51.166 53.125L51.8454 53.115L51.8223 48.525C51.8095 46.2825 51.7839 44.04 51.7608 41.7975L51.6967 35.6475C51.6685 33.24 51.6428 30.8275 51.6428 28.4225L51.6351 25.7175C51.6275 23.4325 51.6198 21.1475 51.6634 18.865L51.2659 18.8725L50.2506 18.8625L47.4713 18.875L46.6406 18.905C46.2919 18.92 45.9458 18.935 45.5971 18.9375L41.5769 18.9325C40.9693 18.935 40.359 18.95 39.7488 18.9625C39.0822 18.9775 38.4156 18.9925 37.749 18.9925L37.3695 18.99L37.367 20.99C37.367 22.03 37.367 23.0675 37.3439 24.1075C37.308 25.75 37.2952 27.3925 37.3131 29.03L37.3182 29.585C37.3208 30.1525 37.3259 30.72 37.3541 31.2825C37.39 32.0175 37.4234 32.7425 37.4259 33.475C37.4285 34.8525 37.4131 36.23 37.3952 37.61L37.39 38.18C37.367 39.915 37.3439 41.57 37.3952 43.225C37.449 44.9925 37.5054 46.735 37.5182 48.48C37.5311 49.8875 37.5285 51.29 37.5259 52.695V53.45L37.8746 53.46ZM27.7471 10.2025C27.6472 11.9175 27.642 13.6375 27.6472 15.3525V16.66C27.6446 17.8125 27.642 18.9675 27.6856 20.12C27.7189 21.0075 27.7369 21.89 27.7574 22.7775C27.7728 23.5825 27.7907 24.385 27.8189 25.1875L27.8805 26.62C27.9266 27.6325 27.9728 28.645 27.9779 29.66L27.9958 34.0775L27.9779 35.775C27.9651 36.6575 27.9523 37.54 27.9728 38.42C27.9958 39.45 28.0369 40.48 28.0805 41.51L28.1292 42.6925C28.1702 43.9 28.1856 45.105 28.201 46.3125C29.2188 46.2375 30.2341 46.1775 31.252 46.1425L31.6571 46.125C32.2161 46.1 32.7724 46.0775 33.3288 46.0375C33.3185 45.0825 33.3006 44.1275 33.2852 43.1725C33.2467 41.0125 33.2083 38.85 33.2493 36.69L33.2647 35.9775C33.2955 34.62 33.3237 33.265 33.2955 31.9075C33.2801 30.98 33.2852 30.055 33.2903 29.125V12.6825C33.2903 11.705 33.3057 10.7275 33.3237 9.75L33.3314 9L31.8033 9.0675C30.5213 9.1075 29.2368 9.1225 27.9523 9.14L27.8061 9.1425L27.7471 10.2025ZM60.4499 47.33C59.9063 47.33 59.373 47.1175 58.991 46.7425C58.55 46.3175 58.4552 45.84 58.3859 45.3475C58.3654 45.1875 58.3731 45.0275 58.3834 44.87C58.3834 44.87 58.3706 43.13 58.3731 42.8325C58.3782 42.4925 58.3834 42.155 58.3731 41.815C58.3167 40.05 58.2629 38.2875 58.268 36.525C58.268 35.4275 59.2166 34.5025 60.3396 34.5025C60.8858 34.5025 61.4242 34.725 61.819 35.1125C62.2139 35.5 62.4215 36.0025 62.4164 36.5275C62.4113 37.0575 62.3472 39.4675 62.3472 39.4675C62.3421 39.995 62.3523 40.525 62.3626 41.0525L62.4497 44.1725C62.4574 44.5425 62.4651 44.915 62.5138 45.2775C62.5882 45.805 62.2651 46.3925 61.9139 46.74C61.5267 47.115 60.996 47.33 60.4499 47.33ZM16.2736 46.5025C15.184 46.5025 14.284 45.6275 14.2686 44.5525C14.2533 43.675 14.2686 42.795 14.2866 41.92L14.3045 40.85C14.3148 40.3375 14.325 39.8225 14.3071 39.31C14.2789 38.5825 14.1456 36.2025 14.1456 36.2025C14.1199 35.7025 14.3148 35.215 14.6943 34.8275C15.1019 34.41 15.6583 34.17 16.2223 34.17C17.3428 34.17 18.253 35.0525 18.2966 36.18C18.3632 37.8025 18.335 39.425 18.3042 41.045C18.2837 42.2125 18.2632 43.38 18.2786 44.55C18.2863 45.055 18.0812 45.5375 17.7043 45.9125C17.3248 46.2875 16.8018 46.5025 16.2736 46.5025ZM44.9433 38.145C44.3972 38.145 43.8383 37.905 43.446 37.4975C43.0794 37.12 42.8922 36.6475 42.923 36.1625C42.9563 35.5675 42.964 34.97 42.9717 34.3775L42.9871 33.5575C42.9948 32.8925 43.0178 32.2325 43.0383 31.57L43.064 30.7875C43.0896 29.87 43.0819 28.9475 43.0742 28.03C43.0665 27.0425 43.0563 26.0525 43.0922 25.065C43.1306 23.9375 44.0383 23.0575 45.1638 23.0575C45.7253 23.0575 46.2791 23.2925 46.6817 23.7075C47.0611 24.095 47.256 24.585 47.2303 25.085L47.1791 26.155C47.138 26.8825 47.0996 27.6075 47.0996 28.3375C47.0945 29.1875 47.0868 30.035 47.0586 30.885L47.0457 31.3025C47.0227 32.0825 46.9996 32.8675 46.9945 33.65C46.9945 34 46.9868 34.35 46.9765 34.7025C46.9611 35.19 46.9483 35.68 46.9611 36.1675C46.9791 36.665 46.7817 37.1475 46.4099 37.525C46.0202 37.92 45.4869 38.145 44.9433 38.145Z" stroke="#2B2B2B" stroke-width="12" mask="url(#path-1-inside-1_4_184)"/>
</svg>
