<svg width="75" height="75" viewBox="0 0 75 75" fill="none" xmlns="http://www.w3.org/2000/svg">
<mask id="path-1-inside-1_4_183" fill="white">
<path fill-rule="evenodd" clip-rule="evenodd" d="M16.6667 0C15.5616 0 14.5018 0.415882 13.7204 1.15616C12.939 1.89643 12.5 2.90046 12.5 3.94737V7.89868C8.49583 7.95395 6.91667 8.4079 5.32917 9.21316C3.6516 10.0545 2.27974 11.3541 1.39167 12.9434C0.483334 14.55 0 16.1447 0 20.5461V62.3487C0 66.7461 0.483334 68.3447 1.39167 69.9513C2.3 71.5579 3.63333 72.8211 5.32917 73.6816C7.025 74.5421 8.70833 75 13.3542 75H61.6458C66.2875 75 67.975 74.5421 69.6708 73.6816C71.3667 72.8211 72.7 71.5579 73.6083 69.9513C74.5167 68.3447 75 66.75 75 62.3487V20.5461C75 16.1447 74.5167 14.55 73.6083 12.9434C72.7203 11.3541 71.3484 10.0545 69.6708 9.21316C68.0833 8.4079 66.5042 7.95395 62.5 7.89474V3.94737C62.5 2.90046 62.061 1.89643 61.2796 1.15616C60.4982 0.415882 59.4384 0 58.3333 0C57.2283 0 56.1685 0.415882 55.3871 1.15616C54.6056 1.89643 54.1667 2.90046 54.1667 3.94737V7.89474H20.8333V3.94737C20.8333 2.90046 20.3943 1.89643 19.6129 1.15616C18.8315 0.415882 17.7717 0 16.6667 0ZM8.33333 27.6316V62.3487C8.33333 64.0342 8.4125 65.0882 8.5375 65.7C8.5875 65.9368 8.60833 65.9921 8.74167 66.2289C8.85215 66.4426 9.03369 66.616 9.25833 66.7224C9.50833 66.8447 9.5625 66.8645 9.81667 66.9118C10.4625 67.0303 11.575 67.1053 13.3542 67.1053H61.6458C63.425 67.1053 64.5375 67.0303 65.1833 66.9118C65.3814 66.884 65.5714 66.8182 65.7417 66.7184C65.9672 66.6137 66.1502 66.4418 66.2625 66.2289C66.3664 66.0673 66.4344 65.8873 66.4625 65.7C66.5875 65.0882 66.6667 64.0342 66.6667 62.3487L66.6833 27.6316H8.33333ZM44.7917 43.4211C43.9629 43.4211 43.168 43.733 42.582 44.2882C41.9959 44.8434 41.6667 45.5964 41.6667 46.3816V56.25C41.6667 57.8842 43.0667 59.2105 44.7917 59.2105H55.2083C56.0371 59.2105 56.832 58.8986 57.418 58.3434C58.0041 57.7882 58.3333 57.0352 58.3333 56.25V46.3816C58.3333 45.5964 58.0041 44.8434 57.418 44.2882C56.832 43.733 56.0371 43.4211 55.2083 43.4211H44.7917Z"/>
</mask>
<path d="M16.6667 0V-25V0ZM12.5 7.89868L12.845 32.8963L37.5 32.556V7.89868H12.5ZM5.32917 9.21316L16.5366 31.5602L16.5877 31.5346L16.6387 31.5088L5.32917 9.21316ZM1.39167 12.9434L23.1542 25.2476L23.185 25.1931L23.2156 25.1384L1.39167 12.9434ZM73.6083 12.9434L51.7844 25.1384L51.815 25.1931L51.8458 25.2476L73.6083 12.9434ZM69.6708 9.21316L58.3613 31.5088L58.4123 31.5346L58.4634 31.5602L69.6708 9.21316ZM62.5 7.89474H37.5V32.5278L62.1304 32.892L62.5 7.89474ZM58.3333 0V-25V0ZM54.1667 7.89474V32.8947H79.1667V7.89474H54.1667ZM20.8333 7.89474H-4.16667V32.8947H20.8333V7.89474ZM8.33333 27.6316V2.63158H-16.6667V27.6316H8.33333ZM8.5375 65.7L-15.9565 70.7042L-15.9402 70.7841L-15.9234 70.864L8.5375 65.7ZM8.74167 66.2289L30.9485 54.746L30.7445 54.3516L30.5267 53.9648L8.74167 66.2289ZM9.25833 66.7224L20.2492 44.2679L20.1042 44.197L19.9583 44.1279L9.25833 66.7224ZM9.81667 66.9118L5.23634 91.4887L5.27206 91.4953L5.3078 91.5019L9.81667 66.9118ZM65.1833 66.9118L61.7088 42.1545L61.1898 42.2273L60.6745 42.3218L65.1833 66.9118ZM65.7417 66.7184L55.2175 44.0415L54.132 44.5453L53.0997 45.1504L65.7417 66.7184ZM66.2625 66.2289L45.2323 52.7112L44.6523 53.6135L44.1517 54.5622L66.2625 66.2289ZM66.4625 65.7L41.9684 60.6958L41.8362 61.3431L41.7383 61.9965L66.4625 65.7ZM66.6667 62.3487L41.6667 62.3367V62.3487H66.6667ZM66.6833 27.6316L91.6833 27.6436L91.6953 2.63158H66.6833V27.6316ZM16.6667 -25C9.35422 -25 2.08744 -22.2607 -3.47323 -16.9927L30.914 19.305C26.9161 23.0924 21.769 25 16.6667 25V-25ZM-3.47323 -16.9927C-9.07978 -11.6812 -12.5 -4.17951 -12.5 3.94737H37.5C37.5 9.98043 34.9578 15.4741 30.914 19.305L-3.47323 -16.9927ZM-12.5 3.94737V7.89868H37.5V3.94737H-12.5ZM12.155 -17.0989C5.91244 -17.0128 0.178223 -16.2064 -5.98034 -13.0825L16.6387 31.5088C16.3674 31.6464 15.8051 31.9161 15.047 32.1898C14.2768 32.4679 13.5623 32.6577 12.9608 32.7792C11.9176 32.9901 11.5948 32.9136 12.845 32.8963L12.155 -17.0989ZM-5.87831 -13.1339C-11.8848 -10.1215 -17.023 -5.35264 -20.4322 0.748434L23.2156 25.1384C21.5825 28.0609 19.188 30.2305 16.5366 31.5602L-5.87831 -13.1339ZM-20.3709 0.639249C-24.2522 7.50428 -25 13.9749 -25 20.5461H25C25 19.0518 25.1021 19.4604 24.8514 20.6906C24.7024 21.4213 24.4595 22.3057 24.0858 23.2651C23.7176 24.2102 23.3466 24.9073 23.1542 25.2476L-20.3709 0.639249ZM-25 20.5461V62.3487H25V20.5461H-25ZM-25 62.3487C-25 68.9124 -24.2533 75.3885 -20.3709 82.2555L23.1542 57.6471C23.3489 57.9916 23.7201 58.6897 24.0879 59.6346C24.461 60.593 24.7033 61.476 24.8518 62.2048C25.1019 63.4322 25 63.8392 25 62.3487H-25ZM-20.3709 82.2555C-16.9622 88.2845 -11.929 92.9586 -5.98359 95.9756L16.6419 51.3876C19.1957 52.6835 21.5622 54.8313 23.1542 57.6471L-20.3709 82.2555ZM-5.98359 95.9756C0.677164 99.3555 6.82842 100 13.3542 100V50C12.579 50 12.1864 49.9801 12.0575 49.9714C11.9358 49.9632 12.2065 49.975 12.7349 50.0717C13.3114 50.1772 14.0579 50.3583 14.8964 50.6515C15.7277 50.9422 16.3459 51.2374 16.6419 51.3876L-5.98359 95.9756ZM13.3542 100H61.6458V50H13.3542V100ZM61.6458 100C68.1642 100 74.321 99.3564 80.9836 95.9756L58.3581 51.3876C58.6581 51.2353 59.2773 50.94 60.1082 50.6497C60.9457 50.3571 61.6907 50.1765 62.2654 50.0714C62.7923 49.975 63.062 49.9633 62.9403 49.9715C62.8116 49.9801 62.4195 50 61.6458 50V100ZM80.9836 95.9756C86.929 92.9586 91.9622 88.2845 95.3709 82.2555L51.8458 57.6471C53.4378 54.8313 55.8043 52.6835 58.3581 51.3876L80.9836 95.9756ZM95.3709 82.2555C99.2522 75.3904 100 68.9198 100 62.3487H50C50 63.8429 49.8979 63.4343 50.1486 62.2042C50.2976 61.4735 50.5405 60.589 50.9142 59.6297C51.2824 58.6845 51.6534 57.9874 51.8458 57.6471L95.3709 82.2555ZM100 62.3487V20.5461H50V62.3487H100ZM100 20.5461C100 13.9749 99.2522 7.50429 95.3709 0.639249L51.8458 25.2476C51.6534 24.9073 51.2824 24.2102 50.9142 23.2651C50.5405 22.3057 50.2976 21.4212 50.1486 20.6906C49.8979 19.4604 50 19.0518 50 20.5461H100ZM95.4322 0.748434C92.023 -5.35264 86.8848 -10.1215 80.8783 -13.1339L58.4634 31.5602C55.812 30.2305 53.4175 28.0609 51.7844 25.1384L95.4322 0.748434ZM80.9803 -13.0825C74.8281 -16.2032 69.1013 -17.0104 62.8696 -17.1025L62.1304 32.892C63.3838 32.9105 63.0658 32.9867 62.0285 32.7766C61.4301 32.6554 60.7181 32.4661 59.9501 32.1887C59.1938 31.9155 58.6327 31.6464 58.3613 31.5088L80.9803 -13.0825ZM87.5 7.89474V3.94737H37.5V7.89474H87.5ZM87.5 3.94737C87.5 -4.17944 84.0798 -11.6811 78.4732 -16.9927L44.086 19.305C40.0422 15.474 37.5 9.98037 37.5 3.94737H87.5ZM78.4732 -16.9927C72.9126 -22.2607 65.6458 -25 58.3333 -25V25C53.231 25 48.0839 23.0924 44.086 19.305L78.4732 -16.9927ZM58.3333 -25C51.0209 -25 43.7541 -22.2607 38.1934 -16.9927L72.5807 19.305C68.5828 23.0924 63.4356 25 58.3333 25V-25ZM38.1934 -16.9927C32.5868 -11.6811 29.1667 -4.17944 29.1667 3.94737H79.1667C79.1667 9.98037 76.6245 15.474 72.5807 19.305L38.1934 -16.9927ZM29.1667 3.94737V7.89474H79.1667V3.94737H29.1667ZM54.1667 -17.1053H20.8333V32.8947H54.1667V-17.1053ZM45.8333 7.89474V3.94737H-4.16667V7.89474H45.8333ZM45.8333 3.94737C45.8333 -4.17951 42.4131 -11.6812 36.8066 -16.9927L2.41933 19.305C-1.62442 15.4741 -4.16667 9.98043 -4.16667 3.94737H45.8333ZM36.8066 -16.9927C31.2459 -22.2607 23.9791 -25 16.6667 -25V25C11.5644 25 6.41719 23.0924 2.41933 19.305L36.8066 -16.9927ZM-16.6667 27.6316V62.3487H33.3333V27.6316H-16.6667ZM-16.6667 62.3487C-16.6667 64.2701 -16.6187 67.4632 -15.9565 70.7042L33.0315 60.6958C33.1719 61.383 33.2437 61.9141 33.2795 62.2163C33.317 62.5328 33.332 62.7452 33.337 62.8224C33.3458 62.9587 33.3333 62.8351 33.3333 62.3487H-16.6667ZM-15.9234 70.864C-15.8818 71.0608 -15.5299 72.85 -14.7212 74.9495C-13.9665 76.9092 -13.0907 78.4092 -13.0434 78.4931L30.5267 53.9648C30.5286 53.9681 30.713 54.2925 30.9381 54.7346C31.1975 55.244 31.5657 56.0131 31.9379 56.9794C32.3184 57.9674 32.5777 58.8355 32.7534 59.5053C32.9029 60.0749 32.9938 60.5145 32.9984 60.536L-15.9234 70.864ZM-13.4651 77.7119C-10.7507 82.9612 -6.43786 86.9508 -1.44166 89.3168L19.9583 44.1279C24.5052 46.2812 28.4551 49.924 30.9485 54.746L-13.4651 77.7119ZM-1.73252 89.1768C-1.72986 89.1781 -0.320293 89.8968 1.45501 90.5032C3.38417 91.1621 5.00695 91.4459 5.23634 91.4887L14.397 42.335C14.4228 42.3398 14.8158 42.4117 15.3316 42.5319C15.9358 42.6727 16.7199 42.8809 17.6169 43.1873C18.4935 43.4867 19.1897 43.7817 19.6341 43.9808C19.8445 44.075 20.0079 44.1521 20.098 44.195C20.1867 44.2373 20.2477 44.2672 20.2492 44.2679L-1.73252 89.1768ZM5.3078 91.5019C8.33045 92.0561 11.3681 92.1053 13.3542 92.1053V42.1053C12.7843 42.1053 12.5652 42.0924 12.6011 42.0945C12.6271 42.096 12.7805 42.1051 13.033 42.1319C13.272 42.1573 13.7249 42.2117 14.3255 42.3218L5.3078 91.5019ZM13.3542 92.1053H61.6458V42.1053H13.3542V92.1053ZM61.6458 92.1053C63.6319 92.1053 66.6695 92.0561 69.6922 91.5019L60.6745 42.3218C61.2751 42.2117 61.728 42.1573 61.967 42.1319C62.2194 42.1051 62.3729 42.096 62.3989 42.0945C62.4348 42.0924 62.2157 42.1053 61.6458 42.1053V92.1053ZM68.6579 91.6692C72.0462 91.1937 75.3567 90.0607 78.3837 88.2865L53.0997 45.1504C55.7861 43.5758 58.7166 42.5744 61.7088 42.1545L68.6579 91.6692ZM76.2659 89.3953C81.2767 87.0698 85.6178 83.118 88.3733 77.8956L44.1517 54.5622C46.6826 49.7656 50.6577 46.1577 55.2175 44.0415L76.2659 89.3953ZM87.2927 79.7467C89.28 76.6551 90.6274 73.1374 91.1867 69.4035L41.7383 61.9965C42.2415 58.6373 43.4528 55.4796 45.2323 52.7112L87.2927 79.7467ZM90.9565 70.7042C91.6187 67.4632 91.6667 64.2701 91.6667 62.3487H41.6667C41.6667 62.8351 41.6542 62.9587 41.663 62.8224C41.668 62.7452 41.683 62.5328 41.7205 62.2163C41.7563 61.9141 41.8281 61.383 41.9684 60.6958L90.9565 70.7042ZM91.6667 62.3607L91.6833 27.6436L41.6833 27.6196L41.6667 62.3367L91.6667 62.3607ZM66.6833 2.63158H8.33333V52.6316H66.6833V2.63158ZM44.7917 18.4211C37.7554 18.4211 30.7536 21.0565 25.3883 26.1394L59.7756 62.437C55.5824 66.4095 50.1703 68.4211 44.7917 68.4211V18.4211ZM25.3883 26.1394C19.9772 31.2657 16.6667 38.5164 16.6667 46.3816H66.6667C66.6667 52.6764 64.0146 58.421 59.7756 62.437L25.3883 26.1394ZM16.6667 46.3816V56.25H66.6667V46.3816H16.6667ZM16.6667 56.25C16.6667 72.9477 30.5504 84.2105 44.7917 84.2105V34.2105C55.583 34.2105 66.6667 42.8207 66.6667 56.25H16.6667ZM44.7917 84.2105H55.2083V34.2105H44.7917V84.2105ZM55.2083 84.2105C62.2444 84.2105 69.2463 81.5752 74.6117 76.4922L40.2244 40.1946C44.4177 36.222 49.8298 34.2105 55.2083 34.2105V84.2105ZM74.6117 76.4922C80.0229 71.3658 83.3333 64.1151 83.3333 56.25H33.3333C33.3333 49.9553 35.9853 44.2106 40.2244 40.1946L74.6117 76.4922ZM83.3333 56.25V46.3816H33.3333V56.25H83.3333ZM83.3333 46.3816C83.3333 38.5165 80.0229 31.2658 74.6117 26.1394L40.2244 62.437C35.9853 58.421 33.3333 52.6763 33.3333 46.3816H83.3333ZM74.6117 26.1394C69.2464 21.0564 62.2445 18.4211 55.2083 18.4211V68.4211C49.8297 68.4211 44.4176 66.4095 40.2244 62.437L74.6117 26.1394ZM55.2083 18.4211H44.7917V68.4211H55.2083V18.4211Z" fill="#2B2B2B" mask="url(#path-1-inside-1_4_183)"/>
</svg>
