<svg width="65" height="65" viewBox="0 0 65 65" fill="none" xmlns="http://www.w3.org/2000/svg">
<g clip-path="url(#clip0_15_2255)">
<path d="M32.4999 65C26.7241 64.9988 21.0528 63.4583 16.0701 60.5372C11.0873 57.6161 6.97308 53.4198 4.15083 48.3804C1.32858 43.341 -0.0996997 37.6405 0.0130278 31.8657C0.125755 26.0909 1.77541 20.4505 4.79219 15.5251C7.80896 10.5996 12.0839 6.56716 17.1768 3.84272C22.2698 1.11827 27.9968 -0.199691 33.7683 0.0244952C39.5398 0.248681 45.1473 2.00692 50.0136 5.11821C54.8799 8.22951 58.8291 12.5814 61.4547 17.726L56.6312 20.1906C54.3475 15.7165 50.8644 11.9656 46.5714 9.35726C42.2783 6.74894 37.3445 5.38596 32.3213 5.42069C27.2981 5.45541 22.3836 6.88647 18.127 9.55389C13.8704 12.2213 10.4396 16.02 8.21792 20.5253C5.99628 25.0306 5.0714 30.065 5.54667 35.0658C6.02194 40.0666 7.87862 44.8366 10.9092 48.8428C13.9398 52.8489 18.0248 55.9333 22.7076 57.7511C27.3905 59.569 32.4866 60.0486 37.4264 59.1365L38.4068 64.4638C36.4583 64.8217 34.4811 65.0012 32.4999 65Z" fill="#FFFDF1"/>
<path d="M12.748 53.3731L8.91846 49.5435L12.4203 46.0416H17.837L21.6666 42.212V31.8608L24.3749 26.4441V22.3058L22.7012 18.9583H18.1376L9.33012 13.0866L12.3364 8.57996L19.7789 13.5416H26.0487L29.7916 21.0275V27.7225L27.0833 33.1391V44.4545L20.0795 51.4583H14.6628L12.748 53.3731Z" fill="#FFFDF1"/>
<path d="M46.326 20.169L43.0137 13.5417L46.326 6.91443L51.1739 9.33568L49.0695 13.5417L51.1739 17.7478L46.326 20.169Z" fill="#FFFDF1"/>
<path d="M48.75 63.5023L39.8125 54.1666C36.8932 52.2441 34.6716 49.4315 33.4775 46.1463C32.2835 42.8611 32.1805 39.2784 33.184 35.9301C34.1875 32.5817 36.244 29.6462 39.0481 27.5593C41.8522 25.4723 45.2545 24.3452 48.75 24.3452C52.2455 24.3452 55.6478 25.4723 58.4519 27.5593C61.256 29.6462 63.3125 32.5817 64.316 35.9301C65.3195 39.2784 65.2165 42.8611 64.0225 46.1463C62.8284 49.4315 60.6068 52.2441 57.6875 54.1666L48.75 63.5023ZM48.75 29.7916C46.4001 29.7856 44.1122 30.5457 42.2331 31.9568C40.354 33.3679 38.9861 35.3531 38.3367 37.6115C37.6873 39.8699 37.7917 42.2785 38.6342 44.4722C39.4768 46.6659 41.0114 48.5252 43.0056 49.7683L43.5175 50.1908L48.75 55.6643L54.4944 49.7683C56.4886 48.5252 58.0232 46.6659 58.8658 44.4722C59.7083 42.2785 59.8127 39.8699 59.1633 37.6115C58.5139 35.3531 57.146 33.3679 55.2669 31.9568C53.3878 30.5457 51.0999 29.7856 48.75 29.7916Z" fill="#FFFDF1"/>
<path d="M51.4587 37.9166H46.042V43.3333H51.4587V37.9166Z" fill="#FFFDF1"/>
</g>
<defs>
<clipPath id="clip0_15_2255">
<rect width="65" height="65" fill="white"/>
</clipPath>
</defs>
</svg>
