<svg width="77" height="77" viewBox="0 0 77 77" fill="none" xmlns="http://www.w3.org/2000/svg">
<path d="M10.9253 17.311C10.4977 17.3098 10.0745 17.2243 9.68001 17.0594C9.2855 16.8945 8.92735 16.6535 8.62607 16.3501C8.32478 16.0467 8.08627 15.6869 7.92417 15.2912C7.76207 14.8955 7.67956 14.4718 7.68136 14.0442V4.26067C7.67934 3.39817 8.01992 2.57017 8.62823 1.95872C9.23654 1.34727 10.0628 1.00242 10.9253 1C11.7878 1.00242 12.614 1.34727 13.2223 1.95872C13.8306 2.57017 14.1712 3.39817 14.1692 4.26067V14.0442C14.171 14.4718 14.0885 14.8955 13.9264 15.2912C13.7643 15.6869 13.5258 16.0467 13.2245 16.3501C12.9232 16.6535 12.565 16.8945 12.1705 17.0594C11.776 17.2243 11.3528 17.3098 10.9253 17.311Z" stroke="#2B2B2B" stroke-width="2" stroke-linecap="round" stroke-linejoin="round"/>
<path d="M62.8308 4.26062H14.1692V14.0426H62.8308V4.26062Z" stroke="#2B2B2B" stroke-width="2" stroke-linecap="round" stroke-linejoin="round"/>
<path d="M62.8308 14.0442H14.1692V62.9573H62.8308V14.0442Z" stroke="#2B2B2B" stroke-width="2" stroke-linecap="round" stroke-linejoin="round"/>
<path d="M4.71037 5.43292H7.6814V12.8719H4.71037C4.22311 12.8719 3.74063 12.776 3.29047 12.5895C2.84031 12.403 2.43128 12.1297 2.08674 11.7852C1.39091 11.0894 1 10.1456 1 9.16158V9.14176C1.0004 8.15798 1.39149 7.21462 2.08728 6.51912C2.78306 5.82363 3.72658 5.43292 4.71037 5.43292Z" stroke="#2B2B2B" stroke-width="2" stroke-linecap="round" stroke-linejoin="round"/>
<path d="M66.0747 17.311C66.9372 17.3086 67.7635 16.9637 68.3718 16.3523C68.9801 15.7408 69.3207 14.9128 69.3186 14.0503V4.26067C69.3207 3.39817 68.9801 2.57017 68.3718 1.95872C67.7635 1.34727 66.9372 1.00242 66.0747 1C65.2122 1.00242 64.386 1.34727 63.7777 1.95872C63.1694 2.57017 62.8288 3.39817 62.8308 4.26067V14.0442C62.829 14.4718 62.9115 14.8955 63.0736 15.2912C63.2357 15.6869 63.4743 16.0467 63.7755 16.3501C64.0768 16.6535 64.435 16.8945 64.8295 17.0594C65.224 17.2243 65.6472 17.3098 66.0747 17.311Z" stroke="#2B2B2B" stroke-width="2" stroke-linecap="round" stroke-linejoin="round"/>
<path d="M72.2896 12.8719H69.3186V5.43293H72.2896C73.2737 5.43293 74.2174 5.82384 74.9133 6.51967C75.6091 7.2155 76 8.15924 76 9.14329V9.16311C76 10.1472 75.6091 11.0909 74.9133 11.7867C74.2174 12.4826 73.2737 12.8735 72.2896 12.8735V12.8719Z" stroke="#2B2B2B" stroke-width="2" stroke-linecap="round" stroke-linejoin="round"/>
<path d="M10.9253 59.689C10.0628 59.6914 9.23654 60.0363 8.62823 60.6477C8.01992 61.2592 7.67934 62.0872 7.68136 62.9497V72.7332C7.67956 73.1608 7.76207 73.5846 7.92417 73.9802C8.08627 74.3759 8.32478 74.7357 8.62607 75.0391C8.92735 75.3425 9.2855 75.5836 9.68001 75.7484C10.0745 75.9133 10.4977 75.9988 10.9253 76C11.7878 75.9976 12.614 75.6527 13.2223 75.0413C13.8306 74.4298 14.1712 73.6018 14.1692 72.7393V62.9558C14.171 62.5282 14.0885 62.1045 13.9264 61.7088C13.7643 61.3131 13.5258 60.9533 13.2245 60.6499C12.9232 60.3465 12.565 60.1055 12.1705 59.9406C11.776 59.7757 11.3528 59.6902 10.9253 59.689Z" stroke="#2B2B2B" stroke-width="2" stroke-linecap="round" stroke-linejoin="round"/>
<path d="M62.8308 62.9558H14.1692V72.7378H62.8308V62.9558Z" stroke="#2B2B2B" stroke-width="2" stroke-linecap="round" stroke-linejoin="round"/>
<path d="M4.71037 64.1281H7.6814V71.5671H4.71037C4.22311 71.5671 3.74063 71.4711 3.29047 71.2846C2.84031 71.0982 2.43128 70.8249 2.08674 70.4803C1.7422 70.1358 1.4689 69.7268 1.28243 69.2766C1.09597 68.8264 1 68.344 1 67.8567V67.8369C1.0004 66.8531 1.39149 65.9098 2.08728 65.2143C2.78306 64.5188 3.72658 64.1281 4.71037 64.1281Z" stroke="#2B2B2B" stroke-width="2" stroke-linecap="round" stroke-linejoin="round"/>
<path d="M66.0747 59.689C66.9372 59.6914 67.7635 60.0363 68.3718 60.6477C68.9801 61.2592 69.3207 62.0872 69.3186 62.9497V72.7332C69.3205 73.1608 69.2379 73.5846 69.0758 73.9802C68.9137 74.3759 68.6752 74.7357 68.3739 75.0391C68.0727 75.3425 67.7145 75.5836 67.32 75.7484C66.9255 75.9133 66.5023 75.9988 66.0747 76C65.2122 75.9976 64.386 75.6527 63.7777 75.0413C63.1694 74.4298 62.8288 73.6018 62.8308 72.7393V62.9558C62.829 62.5282 62.9115 62.1045 63.0736 61.7088C63.2357 61.3131 63.4743 60.9533 63.7755 60.6499C64.0768 60.3465 64.435 60.1055 64.8295 59.9406C65.224 59.7757 65.6472 59.6902 66.0747 59.689Z" stroke="#2B2B2B" stroke-width="2" stroke-linecap="round" stroke-linejoin="round"/>
<path d="M72.2896 71.5671H69.3186V64.1281H72.2896C73.2737 64.1281 74.2174 64.519 74.9133 65.2148C75.6091 65.9106 76 66.8544 76 67.8384V67.8582C76 68.8423 75.6091 69.786 74.9133 70.4819C74.2174 71.1777 73.2737 71.5686 72.2896 71.5686V71.5671Z" stroke="#2B2B2B" stroke-width="2" stroke-linecap="round" stroke-linejoin="round"/>
<path d="M21.3369 20.8339H38.5" stroke="#2B2B2B" stroke-width="2" stroke-linecap="round" stroke-linejoin="round"/>
<path d="M21.3369 27.9009H56.0701" stroke="#2B2B2B" stroke-width="2" stroke-linecap="round" stroke-linejoin="round"/>
<path d="M21.3369 34.9665H56.0701" stroke="#2B2B2B" stroke-width="2" stroke-linecap="round" stroke-linejoin="round"/>
<path d="M21.3369 42.0335H56.0701" stroke="#2B2B2B" stroke-width="2" stroke-linecap="round" stroke-linejoin="round"/>
<path d="M21.3369 49.0991H56.0701" stroke="#2B2B2B" stroke-width="2" stroke-linecap="round" stroke-linejoin="round"/>
<path d="M38.5 56.1661H56.0701" stroke="#2B2B2B" stroke-width="2" stroke-linecap="round" stroke-linejoin="round"/>
</svg>
