<svg width="65" height="65" viewBox="0 0 65 65" fill="none" xmlns="http://www.w3.org/2000/svg">
<path d="M54.1667 8.12498C54.885 8.12498 55.5738 7.83964 56.0817 7.33173C56.5897 6.82382 56.875 6.13494 56.875 5.41665C56.875 4.69835 56.5897 4.00948 56.0817 3.50157C55.5738 2.99365 54.885 2.70831 54.1667 2.70831H10.8333C10.115 2.70831 9.42616 2.99365 8.91825 3.50157C8.41034 4.00948 8.125 4.69835 8.125 5.41665C8.125 6.13494 8.41034 6.82382 8.91825 7.33173C9.42616 7.83964 10.115 8.12498 10.8333 8.12498H13.6744C14.0698 13.0975 15.6867 23.6979 22.3248 29.7916C15.3237 36.5923 13.8992 50.7379 13.6148 56.875H10.8333C10.115 56.875 9.42616 57.1603 8.91825 57.6682C8.41034 58.1761 8.125 58.865 8.125 59.5833C8.125 60.3016 8.41034 60.9905 8.91825 61.4984C9.42616 62.0063 10.115 62.2916 10.8333 62.2916H54.1667C54.885 62.2916 55.5738 62.0063 56.0817 61.4984C56.5897 60.9905 56.875 60.3016 56.875 59.5833C56.875 58.865 56.5897 58.1761 56.0817 57.6682C55.5738 57.1603 54.885 56.875 54.1667 56.875H51.3852C51.1008 50.7433 49.6763 36.5977 42.6752 29.7916C49.3133 23.6925 50.9302 13.0921 51.3256 8.12498H54.1667ZM36.7792 27.4246C36.3489 27.6635 35.9919 28.0152 35.7465 28.4418C35.5011 28.8684 35.3765 29.3538 35.3863 29.8459C35.396 30.338 35.5397 30.8181 35.8018 31.2346C36.0639 31.6512 36.4346 31.9885 36.874 32.2102C43.4742 35.536 45.5406 49.3025 45.9604 56.875H19.0396C19.4485 49.2916 21.5258 35.536 28.126 32.2102C28.5654 31.9885 28.9361 31.6512 29.1982 31.2346C29.4603 30.8181 29.604 30.338 29.6137 29.8459C29.6235 29.3538 29.4989 28.8684 29.2535 28.4418C29.0081 28.0152 28.6511 27.6635 28.2208 27.4246C21.3444 23.6085 19.5731 13.1191 19.1154 8.12498H45.8846C45.4269 13.1191 43.6556 23.6085 36.7792 27.4246ZM32.5 35.2083C32.5 35.2083 40.625 41.7083 40.625 44.9583V54.1666H24.375V44.9583C24.375 41.7083 32.5 35.2083 32.5 35.2083Z" fill="#FFFDF1"/>
</svg>
