<svg width="65" height="65" viewBox="0 0 65 65" fill="none" xmlns="http://www.w3.org/2000/svg">
<path d="M60.9373 8.125H58.229C57.5107 8.125 56.8218 8.41034 56.3139 8.91825C55.806 9.42616 55.5207 10.115 55.5207 10.8333H9.479C9.479 10.115 9.19366 9.42616 8.68575 8.91825C8.17784 8.41034 7.48897 8.125 6.77067 8.125H4.06234C3.34404 8.125 2.65517 8.41034 2.14726 8.91825C1.63935 9.42616 1.354 10.115 1.354 10.8333V54.1667C1.354 54.885 1.63935 55.5738 2.14726 56.0817C2.65517 56.5897 3.34404 56.875 4.06234 56.875H6.77067C7.48897 56.875 8.17784 56.5897 8.68575 56.0817C9.19366 55.5738 9.479 54.885 9.479 54.1667H55.5207C55.5207 54.885 55.806 55.5738 56.3139 56.0817C56.8218 56.5897 57.5107 56.875 58.229 56.875H60.9373C61.6556 56.875 62.3445 56.5897 62.8524 56.0817C63.3603 55.5738 63.6457 54.885 63.6457 54.1667V10.8333C63.6457 10.115 63.3603 9.42616 62.8524 8.91825C62.3445 8.41034 61.6556 8.125 60.9373 8.125ZM6.77067 54.1667H4.06234V10.8333H6.77067V54.1667ZM9.479 51.4583V13.5417H55.5207V51.4583H9.479ZM60.9373 54.1667H58.229V10.8333H60.9373V54.1667Z" fill="#FFFDF1"/>
<path d="M47.3958 16.25H28.7666C28.0548 16.2479 27.3496 16.3871 26.692 16.6596C26.0344 16.932 25.4374 17.3322 24.9356 17.8371L23.6492 19.1236C22.8856 19.8825 21.8536 20.3097 20.777 20.3125H17.6042C16.1676 20.3125 14.7898 20.8832 13.774 21.899C12.7582 22.9149 12.1875 24.2926 12.1875 25.7292V27.4341C12.1885 28.3889 12.4415 29.3265 12.9208 30.1523C13.4002 30.978 14.0889 31.6627 14.9175 32.1371L20.3017 35.2084C20.7167 35.4462 21.0616 35.7896 21.3013 36.2036C21.541 36.6176 21.667 37.0876 21.6667 37.566V38.8362C21.6682 40.0296 21.9845 41.2015 22.5836 42.2336C23.1828 43.2657 24.0436 44.1215 25.0792 44.7146L30.5798 47.8576C31.6031 48.4419 32.7611 48.7495 33.9395 48.75H39.3467C40.3976 48.7484 41.4339 48.5037 42.3746 48.035L46.3612 46.0417C47.4887 45.4829 48.437 44.6193 49.0986 43.5489C49.7601 42.4785 50.1085 41.2442 50.1042 39.9859V30.7274C50.1048 30.4246 50.2063 30.1306 50.3926 29.8919L51.9458 27.9108C52.5064 27.1948 52.8114 26.3121 52.8125 25.4028V21.6667C52.8125 20.2301 52.2418 18.8524 51.226 17.8365C50.2102 16.8207 48.8324 16.25 47.3958 16.25ZM50.1042 25.4028C50.1036 25.7057 50.0021 25.9996 49.8157 26.2384L48.2625 28.2195C47.702 28.9354 47.3969 29.8182 47.3958 30.7274V39.9859C47.3986 40.7408 47.1897 41.4814 46.7929 42.1236C46.396 42.7658 45.8271 43.2839 45.1506 43.6191L41.1667 45.6124C40.6016 45.8951 39.9785 46.0421 39.3467 46.0417H33.9395C33.2317 46.0393 32.5368 45.8526 31.9231 45.5L26.4225 42.357C25.8023 42.0013 25.2867 41.4888 24.9273 40.8708C24.5679 40.2528 24.3774 39.5511 24.375 38.8362V37.566C24.374 36.6112 24.121 35.6735 23.6417 34.8478C23.1623 34.022 22.4736 33.3374 21.645 32.8629L16.2608 29.7917C15.8458 29.5538 15.5009 29.2105 15.2612 28.7965C15.0215 28.3825 14.8955 27.9125 14.8958 27.4341V25.7292C14.8958 25.0109 15.1812 24.322 15.6891 23.8141C16.197 23.3062 16.8859 23.0209 17.6042 23.0209H20.777C21.6663 23.0234 22.5474 22.8494 23.3691 22.5091C24.1908 22.1688 24.9368 21.6689 25.564 21.0384L26.8504 19.7519C27.1014 19.4994 27.4 19.2993 27.729 19.1631C28.0579 19.0269 28.4106 18.9573 28.7666 18.9584H47.3958C48.1141 18.9584 48.803 19.2437 49.3109 19.7516C49.8188 20.2595 50.1042 20.9484 50.1042 21.6667V25.4028Z" fill="#FFFDF1"/>
<path d="M19.1086 43.1491C19.0116 43.003 18.9594 42.8317 18.9583 42.6562V42.4423C18.9587 41.6017 18.6252 40.7955 18.0313 40.2008C17.4373 39.606 16.6315 39.2715 15.7909 39.2708C14.8355 39.2715 13.9193 39.6514 13.2437 40.327C12.5681 41.0026 12.1882 41.9188 12.1875 42.8742V45.1465C12.1882 46.102 12.5681 47.0181 13.2437 47.6938C13.9193 48.3694 14.8355 48.7493 15.7909 48.75H16.9271C17.5006 48.75 18.0634 48.5943 18.5554 48.2996C19.0475 48.0049 19.4503 47.5821 19.7209 47.0764C19.9915 46.5708 20.1198 46.0011 20.0921 45.4282C20.0644 44.8554 19.8818 44.3007 19.5636 43.8235L19.1086 43.1491ZM17.3333 45.7992C17.2957 45.8741 17.2375 45.9367 17.1655 45.9797C17.0936 46.0226 17.0108 46.0441 16.9271 46.0416H15.795C15.6771 46.0422 15.5603 46.0194 15.4512 45.9747C15.3421 45.9299 15.243 45.8641 15.1594 45.7809C15.0759 45.6977 15.0096 45.5989 14.9644 45.49C14.9191 45.3812 14.8958 45.2644 14.8958 45.1465V42.8742C14.8958 42.6369 14.9901 42.4092 15.158 42.2413C15.3259 42.0735 15.5535 41.9791 15.7909 41.9791C15.9127 41.9791 16.0295 42.0275 16.1155 42.1136C16.2016 42.1997 16.25 42.3165 16.25 42.4382V42.6562C16.2495 43.3681 16.4601 44.0642 16.8553 44.6563L17.3062 45.3334C17.3538 45.4008 17.3816 45.4801 17.3864 45.5625C17.3912 45.6448 17.3728 45.7268 17.3333 45.7992Z" fill="#FFFDF1"/>
<path d="M44.2906 22.0634C44.0367 21.8095 43.6923 21.6669 43.3332 21.6669C42.9741 21.6669 42.6298 21.8095 42.3758 22.0634L41.302 23.1373L40.2281 22.0634C39.9727 21.8167 39.6306 21.6802 39.2756 21.6833C38.9205 21.6864 38.5809 21.8288 38.3298 22.0799C38.0787 22.331 37.9363 22.6706 37.9332 23.0257C37.9301 23.3807 38.0666 23.7228 38.3133 23.9782L39.3872 25.0521L38.3133 26.1259C38.184 26.2508 38.0808 26.4003 38.0098 26.5655C37.9389 26.7307 37.9015 26.9084 37.9 27.0882C37.8984 27.268 37.9327 27.4463 38.0007 27.6127C38.0688 27.7791 38.1694 27.9303 38.2965 28.0575C38.4237 28.1846 38.5749 28.2852 38.7413 28.3533C38.9077 28.4214 39.086 28.4556 39.2658 28.4541C39.4456 28.4525 39.6233 28.4151 39.7885 28.3442C39.9538 28.2732 40.1032 28.17 40.2281 28.0407L41.302 26.9668L42.3758 28.0407C42.6312 28.2874 42.9733 28.4239 43.3283 28.4208C43.6834 28.4177 44.023 28.2753 44.2741 28.0242C44.5252 27.7731 44.6676 27.4335 44.6707 27.0784C44.6738 26.7234 44.5373 26.3813 44.2906 26.1259L43.2168 25.0521L44.2906 23.9782C44.5445 23.7243 44.6871 23.3799 44.6871 23.0208C44.6871 22.6617 44.5445 22.3174 44.2906 22.0634Z" fill="#FFFDF1"/>
<path d="M41.9792 29.7917C41.62 29.7917 41.2756 29.9344 41.0216 30.1883C40.7677 30.4423 40.625 30.7867 40.625 31.1459V31.8229C40.625 32.1821 40.7677 32.5265 41.0216 32.7805C41.2756 33.0344 41.62 33.1771 41.9792 33.1771C42.3383 33.1771 42.6828 33.0344 42.9367 32.7805C43.1907 32.5265 43.3333 32.1821 43.3333 31.8229V31.1459C43.3333 30.7867 43.1907 30.4423 42.9367 30.1883C42.6828 29.9344 42.3383 29.7917 41.9792 29.7917Z" fill="#FFFDF1"/>
<path d="M37.3751 39.1638C37.2079 39.2343 37.0283 39.2706 36.8469 39.2708H36.4596C36.1005 39.2708 35.7561 39.4135 35.5021 39.6674C35.2481 39.9214 35.1055 40.2658 35.1055 40.625C35.1055 40.9841 35.2481 41.3286 35.5021 41.5825C35.7561 41.8365 36.1005 41.9791 36.4596 41.9791H36.8496C37.3905 41.9785 37.9258 41.8703 38.4245 41.6609C38.7557 41.5217 39.018 41.2567 39.1537 40.9242C39.2894 40.5916 39.2875 40.2188 39.1483 39.8876C39.0092 39.5565 38.7442 39.2942 38.4116 39.1585C38.079 39.0227 37.7062 39.0247 37.3751 39.1638Z" fill="#FFFDF1"/>
<path d="M33.8543 37.9167V37.5511C33.8543 37.1919 33.7117 36.8475 33.4577 36.5935C33.2038 36.3396 32.8593 36.1969 32.5002 36.1969C32.141 36.1969 31.7966 36.3396 31.5426 36.5935C31.2887 36.8475 31.146 37.1919 31.146 37.5511V37.9167C31.1454 38.4704 31.2583 39.0184 31.4778 39.5268C31.622 39.8536 31.8896 40.1102 32.2223 40.2407C32.5549 40.3711 32.9256 40.3648 33.2536 40.2231C33.5815 40.0814 33.8403 39.8159 33.9733 39.4843C34.1064 39.1528 34.1031 38.7821 33.964 38.4529C33.891 38.2836 33.8537 38.1011 33.8543 37.9167Z" fill="#FFFDF1"/>
<path d="M42.1738 34.9077C41.8258 34.819 41.4568 34.8722 41.148 35.0555C40.8392 35.2389 40.6159 35.5374 40.5271 35.8854C40.4712 36.1574 40.3602 36.415 40.2008 36.6424C39.9735 36.9131 39.8611 37.262 39.8876 37.6145C39.9141 37.967 40.0774 38.2952 40.3426 38.5289C40.6078 38.7627 40.9539 38.8834 41.3069 38.8654C41.66 38.8474 41.992 38.6921 42.232 38.4326C42.6769 37.8844 42.9909 37.2421 43.1502 36.5543C43.2389 36.2065 43.1859 35.8377 43.0028 35.5289C42.8198 35.2201 42.5216 34.9967 42.1738 34.9077Z" fill="#FFFDF1"/>
<path d="M31.9056 32.6977L31.4263 32.2197C31.1709 31.973 30.8288 31.8365 30.4737 31.8396C30.1187 31.8427 29.779 31.9851 29.528 32.2362C29.2769 32.4872 29.1345 32.8269 29.1314 33.1819C29.1283 33.537 29.2648 33.8791 29.5115 34.1345L29.9895 34.6138C30.1153 34.7397 30.2647 34.8395 30.4291 34.9075C30.5935 34.9756 30.7696 35.0107 30.9476 35.0107C31.1255 35.0107 31.3017 34.9756 31.4661 34.9075C31.6305 34.8395 31.7798 34.7397 31.9056 34.6138C32.0315 34.488 32.1313 34.3387 32.1994 34.1743C32.2674 34.0099 32.3025 33.8337 32.3025 33.6558C32.3025 33.4778 32.2674 33.3016 32.1994 33.1373C32.1313 32.9729 32.0315 32.8235 31.9056 32.6977Z" fill="#FFFDF1"/>
<path d="M25.729 24.375C24.9255 24.375 24.1401 24.6133 23.472 25.0597C22.8039 25.506 22.2832 26.1405 21.9757 26.8828C21.6683 27.6252 21.5878 28.442 21.7446 29.2301C21.9013 30.0181 22.2882 30.742 22.8564 31.3101C23.4245 31.8783 24.1484 32.2652 24.9365 32.4219C25.7245 32.5787 26.5413 32.4982 27.2837 32.1908C28.026 31.8833 28.6605 31.3626 29.1069 30.6945C29.5532 30.0264 29.7915 29.241 29.7915 28.4375C29.7915 27.3601 29.3635 26.3267 28.6016 25.5649C27.8398 24.803 26.8064 24.375 25.729 24.375ZM25.729 29.7917C25.4612 29.7917 25.1994 29.7122 24.9767 29.5634C24.754 29.4147 24.5804 29.2032 24.4779 28.9557C24.3754 28.7083 24.3486 28.436 24.4009 28.1733C24.4531 27.9106 24.5821 27.6693 24.7715 27.48C24.9608 27.2906 25.2021 27.1616 25.4648 27.1094C25.7275 27.0571 25.9998 27.0839 26.2472 27.1864C26.4947 27.2889 26.7062 27.4625 26.855 27.6852C27.0038 27.9079 27.0832 28.1697 27.0832 28.4375C27.0832 28.7966 26.9405 29.1411 26.6865 29.395C26.4326 29.649 26.0882 29.7917 25.729 29.7917Z" fill="#FFFDF1"/>
</svg>
