<svg width="50" height="59" viewBox="0 0 50 59" fill="none" xmlns="http://www.w3.org/2000/svg">
<path d="M0 9.99999C0 4.47715 4.57331 0 10.0962 0C15.619 0 20.1923 4.47715 20.1923 10V20.5626C20.1923 21.2178 20.1279 21.8715 20 22.5141L16.4663 40.2739C15.8996 43.1225 11.7393 42.8423 11.5597 39.9434L10.941 29.9575C10.8636 28.7085 10.1729 27.5789 9.0965 26.9407L4.90034 24.453C1.86262 22.6521 0 19.3825 0 15.851V9.99999Z" fill="#A781A8"/>
<path d="M29 9.99999C29 4.47715 33.5733 0 39.0962 0C44.619 0 49.1923 4.47715 49.1923 10V20.5626C49.1923 21.2178 49.1279 21.8715 49 22.5141L45.4663 40.2739C44.8996 43.1225 40.7393 42.8423 40.5597 39.9434L39.941 29.9575C39.8636 28.7085 39.1729 27.5789 38.0965 26.9407L33.9003 24.453C30.8626 22.6521 29 19.3825 29 15.851V9.99999Z" fill="#A781A8"/>
</svg>
